solid 
 facet normal  2.588190e-01  0.000000e+00 -9.659258e-01
   outer loop
     vertex  4.346294e+03  2.275000e+02  1.434055e+03
     vertex  4.331118e+03  2.205000e+02  1.429989e+03
     vertex  4.331118e+03  2.275000e+02  1.429989e+03
   endloop
 endfacet
 facet normal  2.588190e-01  0.000000e+00 -9.659258e-01
   outer loop
     vertex  4.346294e+03  2.275000e+02  1.434055e+03
     vertex  4.346294e+03  2.205000e+02  1.434055e+03
     vertex  4.331118e+03  2.205000e+02  1.429989e+03
   endloop
 endfacet
endsolid
