solid 
 facet normal  9.450353e-14  0.000000e+00 -1.000000e+00
   outer loop
     vertex  4.350000e+03  1.956184e+02  1.183000e+03
     vertex  4.595293e+02 -1.561842e+01  1.183000e+03
     vertex  4.595293e+02  1.956184e+02  1.183000e+03
   endloop
 endfacet
 facet normal  9.450353e-14  0.000000e+00 -1.000000e+00
   outer loop
     vertex  4.350000e+03  1.956184e+02  1.183000e+03
     vertex  4.350000e+03 -1.561842e+01  1.183000e+03
     vertex  4.595293e+02 -1.561842e+01  1.183000e+03
   endloop
 endfacet
endsolid
