solid 
 facet normal  3.767082e-01  0.000000e+00 -9.263320e-01
   outer loop
     vertex  4.346294e+03 -4.750000e+01  1.434055e+03
     vertex  4.346294e+03 -4.050000e+01  1.434055e+03
     vertex  4.347444e+03 -4.050000e+01  1.434523e+03
   endloop
 endfacet
 facet normal  5.932753e-01 -1.360911e-15 -8.049996e-01
   outer loop
     vertex  4.347444e+03 -4.750000e+01  1.434523e+03
     vertex  4.347444e+03 -4.050000e+01  1.434523e+03
     vertex  4.348443e+03 -4.050000e+01  1.435259e+03
   endloop
 endfacet
 facet normal  3.767082e-01 -4.132235e-14 -9.263320e-01
   outer loop
     vertex  4.347444e+03 -4.750000e+01  1.434523e+03
     vertex  4.346294e+03 -4.750000e+01  1.434055e+03
     vertex  4.347444e+03 -4.050000e+01  1.434523e+03
   endloop
 endfacet
 facet normal  7.732832e-01  3.617771e-14 -6.340608e-01
   outer loop
     vertex  4.348443e+03 -4.750000e+01  1.435259e+03
     vertex  4.348443e+03 -4.050000e+01  1.435259e+03
     vertex  4.349230e+03 -4.050000e+01  1.436219e+03
   endloop
 endfacet
 facet normal  5.932753e-01 -5.501774e-14 -8.049996e-01
   outer loop
     vertex  4.348443e+03 -4.750000e+01  1.435259e+03
     vertex  4.347444e+03 -4.750000e+01  1.434523e+03
     vertex  4.348443e+03 -4.050000e+01  1.435259e+03
   endloop
 endfacet
 facet normal  9.056391e-01  2.872612e-14 -4.240494e-01
   outer loop
     vertex  4.349230e+03 -4.750000e+01  1.436219e+03
     vertex  4.349230e+03 -4.050000e+01  1.436219e+03
     vertex  4.349756e+03 -4.050000e+01  1.437343e+03
   endloop
 endfacet
 facet normal  7.732832e-01 -1.079910e-13 -6.340608e-01
   outer loop
     vertex  4.349230e+03 -4.750000e+01  1.436219e+03
     vertex  4.348443e+03 -4.750000e+01  1.435259e+03
     vertex  4.349230e+03 -4.050000e+01  1.436219e+03
   endloop
 endfacet
 facet normal  9.056391e-01  2.643785e-12 -4.240494e-01
   outer loop
     vertex  4.349756e+03 -4.750000e+01  1.437343e+03
     vertex  4.349230e+03 -4.750000e+01  1.436219e+03
     vertex  4.349756e+03 -4.050000e+01  1.437343e+03
   endloop
 endfacet
 facet normal  9.704414e-01  3.002063e-06 -2.413369e-01
   outer loop
     vertex  4.349924e+03 -4.749086e+01  1.438019e+03
     vertex  4.349756e+03 -4.050000e+01  1.437343e+03
     vertex  4.349924e+03 -4.048730e+01  1.438019e+03
   endloop
 endfacet
 facet normal  9.704341e-01  2.805261e-12 -2.413661e-01
   outer loop
     vertex  4.349924e+03 -4.749086e+01  1.438019e+03
     vertex  4.349756e+03 -4.750000e+01  1.437343e+03
     vertex  4.349756e+03 -4.050000e+01  1.437343e+03
   endloop
 endfacet
 facet normal  9.914998e-01  2.024646e-06 -1.301085e-01
   outer loop
     vertex  4.349981e+03 -4.747546e+01  1.438451e+03
     vertex  4.349924e+03 -4.048730e+01  1.438019e+03
     vertex  4.349981e+03 -4.046589e+01  1.438451e+03
   endloop
 endfacet
 facet normal  9.914916e-01 -1.873077e-06 -1.301706e-01
   outer loop
     vertex  4.349981e+03 -4.747546e+01  1.438451e+03
     vertex  4.349924e+03 -4.749086e+01  1.438019e+03
     vertex  4.349924e+03 -4.048730e+01  1.438019e+03
   endloop
 endfacet
 facet normal  9.990553e-01  0.000000e+00 -4.345645e-02
   outer loop
     vertex  4.350000e+03 -4.745241e+01  1.438885e+03
     vertex  4.349981e+03 -4.046589e+01  1.438451e+03
     vertex  4.350000e+03 -4.043385e+01  1.438885e+03
   endloop
 endfacet
 facet normal  9.990539e-01 -2.055272e-06 -4.348946e-02
   outer loop
     vertex  4.350000e+03 -4.745241e+01  1.438885e+03
     vertex  4.349981e+03 -4.747546e+01  1.438451e+03
     vertex  4.349981e+03 -4.046589e+01  1.438451e+03
   endloop
 endfacet
endsolid
