solid 
 facet normal  1.806857e-15 -9.998236e-01 -1.878452e-02
   outer loop
     vertex  4.349924e+03  2.204873e+02  1.438019e+03
     vertex  5.463518e+02  2.205000e+02  1.437343e+03
     vertex  4.349756e+03  2.205000e+02  1.437343e+03
   endloop
 endfacet
 facet normal  4.416253e-06 -9.990485e-01 -4.361395e-02
   outer loop
     vertex  4.349924e+03  2.204873e+02  1.438019e+03
     vertex  5.444174e+02  2.204315e+02  1.438912e+03
     vertex  5.463518e+02  2.205000e+02  1.437343e+03
   endloop
 endfacet
 facet normal  3.018951e-06 -9.987715e-01 -4.955334e-02
   outer loop
     vertex  4.349981e+03  2.204659e+02  1.438451e+03
     vertex  5.444174e+02  2.204315e+02  1.438912e+03
     vertex  4.349924e+03  2.204873e+02  1.438019e+03
   endloop
 endfacet
 facet normal  9.144473e-08 -9.972877e-01 -7.360169e-02
   outer loop
     vertex  4.350000e+03  2.204338e+02  1.438885e+03
     vertex  5.444174e+02  2.204315e+02  1.438912e+03
     vertex  4.349981e+03  2.204659e+02  1.438451e+03
   endloop
 endfacet
 facet normal  3.571581e-09 -9.963032e-01 -8.590620e-02
   outer loop
     vertex  4.350000e+03  2.204331e+02  1.438894e+03
     vertex  5.444174e+02  2.204315e+02  1.438912e+03
     vertex  4.350000e+03  2.204338e+02  1.438885e+03
   endloop
 endfacet
 facet normal  1.190532e-09 -9.962600e-01 -8.640603e-02
   outer loop
     vertex  4.350000e+03  2.204323e+02  1.438903e+03
     vertex  5.444174e+02  2.204315e+02  1.438912e+03
     vertex  4.350000e+03  2.204331e+02  1.438894e+03
   endloop
 endfacet
 facet normal  8.063795e-15 -9.962165e-01 -8.690584e-02
   outer loop
     vertex  4.350000e+03  2.204315e+02  1.438912e+03
     vertex  5.444174e+02  2.204315e+02  1.438912e+03
     vertex  4.350000e+03  2.204323e+02  1.438903e+03
   endloop
 endfacet
endsolid
