solid 
 facet normal  1.620037e-13 -1.000000e+00  0.000000e+00
   outer loop
     vertex  4.066502e+03  1.102000e+02  1.534000e+03
     vertex  4.061502e+03  1.102000e+02  1.541000e+03
     vertex  4.061502e+03  1.102000e+02  1.534000e+03
   endloop
 endfacet
 facet normal  1.620037e-13 -1.000000e+00  0.000000e+00
   outer loop
     vertex  4.066502e+03  1.102000e+02  1.534000e+03
     vertex  4.066502e+03  1.102000e+02  1.541000e+03
     vertex  4.061502e+03  1.102000e+02  1.541000e+03
   endloop
 endfacet
endsolid
