solid 
 facet normal -8.105017e-15  9.961947e-01  8.715574e-02
   outer loop
     vertex  4.350000e+03  2.205233e+02  1.518179e+03
     vertex  4.350000e+03  2.274049e+02  1.439522e+03
     vertex  5.529175e+02  2.274049e+02  1.439522e+03
   endloop
 endfacet
 facet normal -1.054778e-14  9.961947e-01  8.715574e-02
   outer loop
     vertex  4.350000e+03  2.205233e+02  1.518179e+03
     vertex  5.529175e+02  2.274049e+02  1.439522e+03
     vertex  5.466028e+02  2.269254e+02  1.445003e+03
   endloop
 endfacet
 facet normal -8.246183e-15  9.961947e-01  8.715574e-02
   outer loop
     vertex  3.775716e+02  2.205233e+02  1.518179e+03
     vertex  4.350000e+03  2.205233e+02  1.518179e+03
     vertex  5.278698e+02  2.259699e+02  1.455923e+03
   endloop
 endfacet
 facet normal -7.200410e-15  9.961947e-01  8.715574e-02
   outer loop
     vertex  5.278698e+02  2.259699e+02  1.455923e+03
     vertex  4.350000e+03  2.205233e+02  1.518179e+03
     vertex  5.397537e+02  2.265057e+02  1.449799e+03
   endloop
 endfacet
 facet normal -8.305529e-15  9.961947e-01  8.715574e-02
   outer loop
     vertex  5.397537e+02  2.265057e+02  1.449799e+03
     vertex  4.350000e+03  2.205233e+02  1.518179e+03
     vertex  5.466028e+02  2.269254e+02  1.445003e+03
   endloop
 endfacet
endsolid
