solid 
 facet normal -6.909170e-01 -1.125242e-01 -7.141232e-01
   outer loop
     vertex  4.581562e+02 -1.759226e+01  1.184639e+03
     vertex  4.595293e+02 -1.561842e+01  1.183000e+03
     vertex  4.598239e+02 -2.056791e+01  1.183495e+03
   endloop
 endfacet
 facet normal -7.379679e-01 -4.586684e-02 -6.732753e-01
   outer loop
     vertex  4.571776e+02 -1.753431e+01  1.185708e+03
     vertex  4.595293e+02 -1.561842e+01  1.183000e+03
     vertex  4.581562e+02 -1.759226e+01  1.184639e+03
   endloop
 endfacet
 facet normal -7.220508e-01 -1.444055e-01 -6.766015e-01
   outer loop
     vertex  4.583132e+02 -1.955185e+01  1.184890e+03
     vertex  4.581562e+02 -1.759226e+01  1.184639e+03
     vertex  4.598239e+02 -2.056791e+01  1.183495e+03
   endloop
 endfacet
 facet normal -7.363029e-01 -5.139712e-02 -6.746973e-01
   outer loop
     vertex  4.563770e+02 -1.748691e+01  1.186582e+03
     vertex  4.531150e+02 -1.561842e+01  1.190000e+03
     vertex  4.595293e+02 -1.561842e+01  1.183000e+03
   endloop
 endfacet
 facet normal -7.379624e-01 -4.588086e-02 -6.732804e-01
   outer loop
     vertex  4.563770e+02 -1.748691e+01  1.186582e+03
     vertex  4.595293e+02 -1.561842e+01  1.183000e+03
     vertex  4.571776e+02 -1.753431e+01  1.185708e+03
   endloop
 endfacet
 facet normal -7.382658e-01 -1.434624e-01 -6.590768e-01
   outer loop
     vertex  4.573387e+02 -1.943572e+01  1.185956e+03
     vertex  4.581562e+02 -1.759226e+01  1.184639e+03
     vertex  4.583132e+02 -1.955185e+01  1.184890e+03
   endloop
 endfacet
 facet normal -7.333044e-01 -1.487690e-01 -6.634248e-01
   outer loop
     vertex  4.573387e+02 -1.943572e+01  1.185956e+03
     vertex  4.571776e+02 -1.753431e+01  1.185708e+03
     vertex  4.581562e+02 -1.759226e+01  1.184639e+03
   endloop
 endfacet
 facet normal -7.378092e-01 -5.802669e-02 -6.725105e-01
   outer loop
     vertex  4.555765e+02 -1.743955e+01  1.187457e+03
     vertex  4.531150e+02 -1.561842e+01  1.190000e+03
     vertex  4.563770e+02 -1.748691e+01  1.186582e+03
   endloop
 endfacet
 facet normal -7.401339e-01 -2.354159e-01 -6.299057e-01
   outer loop
     vertex  4.585741e+02 -2.148323e+01  1.185305e+03
     vertex  4.583132e+02 -1.955185e+01  1.184890e+03
     vertex  4.598239e+02 -2.056791e+01  1.183495e+03
   endloop
 endfacet
 facet normal -7.329273e-01 -1.530945e-01 -6.628572e-01
   outer loop
     vertex  4.565417e+02 -1.934078e+01  1.186829e+03
     vertex  4.563770e+02 -1.748691e+01  1.186582e+03
     vertex  4.571776e+02 -1.753431e+01  1.185708e+03
   endloop
 endfacet
 facet normal -7.379643e-01 -1.484944e-01 -6.582994e-01
   outer loop
     vertex  4.565417e+02 -1.934078e+01  1.186829e+03
     vertex  4.571776e+02 -1.753431e+01  1.185708e+03
     vertex  4.573387e+02 -1.943572e+01  1.185956e+03
   endloop
 endfacet
 facet normal -7.377915e-01 -5.796849e-02 -6.725350e-01
   outer loop
     vertex  4.547761e+02 -1.739222e+01  1.188331e+03
     vertex  4.531150e+02 -1.561842e+01  1.190000e+03
     vertex  4.555765e+02 -1.743955e+01  1.187457e+03
   endloop
 endfacet
 facet normal -7.373757e-01 -2.357134e-01 -6.330215e-01
   outer loop
     vertex  4.576065e+02 -2.130865e+01  1.186368e+03
     vertex  4.583132e+02 -1.955185e+01  1.184890e+03
     vertex  4.585741e+02 -2.148323e+01  1.185305e+03
   endloop
 endfacet
 facet normal -7.288707e-01 -2.445665e-01 -6.394801e-01
   outer loop
     vertex  4.576065e+02 -2.130865e+01  1.186368e+03
     vertex  4.573387e+02 -1.943572e+01  1.185956e+03
     vertex  4.583132e+02 -1.955185e+01  1.184890e+03
   endloop
 endfacet
 facet normal -7.376471e-01 -1.528241e-01 -6.576637e-01
   outer loop
     vertex  4.557449e+02 -1.924597e+01  1.187700e+03
     vertex  4.563770e+02 -1.748691e+01  1.186582e+03
     vertex  4.565417e+02 -1.934078e+01  1.186829e+03
   endloop
 endfacet
 facet normal -7.325105e-01 -1.575926e-01 -6.622634e-01
   outer loop
     vertex  4.557449e+02 -1.924597e+01  1.187700e+03
     vertex  4.555765e+02 -1.743955e+01  1.187457e+03
     vertex  4.563770e+02 -1.748691e+01  1.186582e+03
   endloop
 endfacet
 facet normal -7.324902e-01 -1.575937e-01 -6.622857e-01
   outer loop
     vertex  4.557449e+02 -1.924597e+01  1.187700e+03
     vertex  4.547761e+02 -1.739222e+01  1.188331e+03
     vertex  4.555765e+02 -1.743955e+01  1.187457e+03
   endloop
 endfacet
 facet normal -7.513807e-01 -7.238735e-02 -6.558865e-01
   outer loop
     vertex  4.539757e+02 -1.734494e+01  1.189205e+03
     vertex  4.532099e+02 -1.772561e+01  1.190124e+03
     vertex  4.531150e+02 -1.561842e+01  1.190000e+03
   endloop
 endfacet
 facet normal -7.377670e-01 -5.791605e-02 -6.725664e-01
   outer loop
     vertex  4.539757e+02 -1.734494e+01  1.189205e+03
     vertex  4.531150e+02 -1.561842e+01  1.190000e+03
     vertex  4.547761e+02 -1.739222e+01  1.188331e+03
   endloop
 endfacet
 facet normal -6.959225e-01 -3.250314e-01 -6.403487e-01
   outer loop
     vertex  4.589372e+02 -2.337262e+01  1.185882e+03
     vertex  4.598239e+02 -2.056791e+01  1.183495e+03
     vertex  4.606961e+02 -2.532147e+01  1.184960e+03
   endloop
 endfacet
 facet normal -6.910753e-01 -3.292092e-01 -6.434565e-01
   outer loop
     vertex  4.589372e+02 -2.337262e+01  1.185882e+03
     vertex  4.585741e+02 -2.148323e+01  1.185305e+03
     vertex  4.598239e+02 -2.056791e+01  1.183495e+03
   endloop
 endfacet
 facet normal -7.279057e-01 -2.514865e-01 -6.378933e-01
   outer loop
     vertex  4.568153e+02 -2.116596e+01  1.187236e+03
     vertex  4.565417e+02 -1.934078e+01  1.186829e+03
     vertex  4.573387e+02 -1.943572e+01  1.185956e+03
   endloop
 endfacet
 facet normal -7.364829e-01 -2.437928e-01 -6.309976e-01
   outer loop
     vertex  4.568153e+02 -2.116596e+01  1.187236e+03
     vertex  4.573387e+02 -1.943572e+01  1.185956e+03
     vertex  4.576065e+02 -2.130865e+01  1.186368e+03
   endloop
 endfacet
 facet normal -7.369847e-01 -1.620105e-01 -6.562059e-01
   outer loop
     vertex  4.549484e+02 -1.915130e+01  1.188571e+03
     vertex  4.547761e+02 -1.739222e+01  1.188331e+03
     vertex  4.557449e+02 -1.924597e+01  1.187700e+03
   endloop
 endfacet
 facet normal -7.232027e-01 -3.354025e-01 -6.037242e-01
   outer loop
     vertex  4.579793e+02 -2.313927e+01  1.186938e+03
     vertex  4.576065e+02 -2.130865e+01  1.186368e+03
     vertex  4.585741e+02 -2.148323e+01  1.185305e+03
   endloop
 endfacet
 facet normal -7.353353e-01 -3.231388e-01 -5.957041e-01
   outer loop
     vertex  4.579793e+02 -2.313927e+01  1.186938e+03
     vertex  4.585741e+02 -2.148323e+01  1.185305e+03
     vertex  4.589372e+02 -2.337262e+01  1.185882e+03
   endloop
 endfacet
 facet normal -7.231454e-01 -3.354108e-01 -6.037884e-01
   outer loop
     vertex  4.579793e+02 -2.313927e+01  1.186938e+03
     vertex  4.568153e+02 -2.116596e+01  1.187236e+03
     vertex  4.576065e+02 -2.130865e+01  1.186368e+03
   endloop
 endfacet
 facet normal -7.268229e-01 -2.586614e-01 -6.362568e-01
   outer loop
     vertex  4.560247e+02 -2.102356e+01  1.188103e+03
     vertex  4.557449e+02 -1.924597e+01  1.187700e+03
     vertex  4.565417e+02 -1.934078e+01  1.186829e+03
   endloop
 endfacet
 facet normal -7.355793e-01 -2.507263e-01 -6.293325e-01
   outer loop
     vertex  4.560247e+02 -2.102356e+01  1.188103e+03
     vertex  4.565417e+02 -1.934078e+01  1.186829e+03
     vertex  4.568153e+02 -2.116596e+01  1.187236e+03
   endloop
 endfacet
 facet normal -7.524518e-01 -2.134938e-01 -6.230864e-01
   outer loop
     vertex  4.541520e+02 -1.905680e+01  1.189442e+03
     vertex  4.534935e+02 -1.980382e+01  1.190493e+03
     vertex  4.532099e+02 -1.772561e+01  1.190124e+03
   endloop
 endfacet
 facet normal -7.368957e-01 -1.620153e-01 -6.563046e-01
   outer loop
     vertex  4.541520e+02 -1.905680e+01  1.189442e+03
     vertex  4.547761e+02 -1.739222e+01  1.188331e+03
     vertex  4.549484e+02 -1.915130e+01  1.188571e+03
   endloop
 endfacet
 facet normal -7.222433e-01 -1.675709e-01 -6.710325e-01
   outer loop
     vertex  4.541520e+02 -1.905680e+01  1.189442e+03
     vertex  4.532099e+02 -1.772561e+01  1.190124e+03
     vertex  4.539757e+02 -1.734494e+01  1.189205e+03
   endloop
 endfacet
 facet normal -7.315604e-01 -1.671337e-01 -6.609734e-01
   outer loop
     vertex  4.541520e+02 -1.905680e+01  1.189442e+03
     vertex  4.539757e+02 -1.734494e+01  1.189205e+03
     vertex  4.547761e+02 -1.739222e+01  1.188331e+03
   endloop
 endfacet
 facet normal -7.338606e-01 -4.038103e-01 -5.462471e-01
   outer loop
     vertex  4.594001e+02 -2.520654e+01  1.186616e+03
     vertex  4.589372e+02 -2.337262e+01  1.185882e+03
     vertex  4.606961e+02 -2.532147e+01  1.184960e+03
   endloop
 endfacet
 facet normal -7.320706e-01 -3.429691e-01 -5.885957e-01
   outer loop
     vertex  4.571963e+02 -2.294858e+01  1.187801e+03
     vertex  4.568153e+02 -2.116596e+01  1.187236e+03
     vertex  4.579793e+02 -2.313927e+01  1.186938e+03
   endloop
 endfacet
 facet normal -7.345974e-01 -2.579156e-01 -6.275716e-01
   outer loop
     vertex  4.552344e+02 -2.088144e+01  1.188970e+03
     vertex  4.557449e+02 -1.924597e+01  1.187700e+03
     vertex  4.560247e+02 -2.102356e+01  1.188103e+03
   endloop
 endfacet
 facet normal -7.256451e-01 -2.661100e-01 -6.345271e-01
   outer loop
     vertex  4.552344e+02 -2.088144e+01  1.188970e+03
     vertex  4.549484e+02 -1.915130e+01  1.188571e+03
     vertex  4.557449e+02 -1.924597e+01  1.187700e+03
   endloop
 endfacet
 facet normal -7.164822e-01 -4.196456e-01 -5.572709e-01
   outer loop
     vertex  4.584549e+02 -2.491407e+01  1.187663e+03
     vertex  4.579793e+02 -2.313927e+01  1.186938e+03
     vertex  4.589372e+02 -2.337262e+01  1.185882e+03
   endloop
 endfacet
 facet normal -7.322547e-01 -4.041618e-01 -5.481389e-01
   outer loop
     vertex  4.584549e+02 -2.491407e+01  1.187663e+03
     vertex  4.589372e+02 -2.337262e+01  1.185882e+03
     vertex  4.594001e+02 -2.520654e+01  1.186616e+03
   endloop
 endfacet
 facet normal -7.163717e-01 -4.196674e-01 -5.573966e-01
   outer loop
     vertex  4.584549e+02 -2.491407e+01  1.187663e+03
     vertex  4.571963e+02 -2.294858e+01  1.187801e+03
     vertex  4.579793e+02 -2.313927e+01  1.186938e+03
   endloop
 endfacet
 facet normal -7.194020e-01 -3.539648e-01 -5.976367e-01
   outer loop
     vertex  4.564140e+02 -2.275837e+01  1.188662e+03
     vertex  4.560247e+02 -2.102356e+01  1.188103e+03
     vertex  4.568153e+02 -2.116596e+01  1.187236e+03
   endloop
 endfacet
 facet normal -7.318107e-01 -3.430086e-01 -5.888957e-01
   outer loop
     vertex  4.564140e+02 -2.275837e+01  1.188662e+03
     vertex  4.568153e+02 -2.116596e+01  1.187236e+03
     vertex  4.571963e+02 -2.294858e+01  1.187801e+03
   endloop
 endfacet
 facet normal -7.149144e-01 -2.746285e-01 -6.430215e-01
   outer loop
     vertex  4.544444e+02 -2.073963e+01  1.189836e+03
     vertex  4.534935e+02 -1.980382e+01  1.190493e+03
     vertex  4.541520e+02 -1.905680e+01  1.189442e+03
   endloop
 endfacet
 facet normal -7.243564e-01 -2.738550e-01 -6.327015e-01
   outer loop
     vertex  4.544444e+02 -2.073963e+01  1.189836e+03
     vertex  4.541520e+02 -1.905680e+01  1.189442e+03
     vertex  4.549484e+02 -1.915130e+01  1.188571e+03
   endloop
 endfacet
 facet normal -7.335226e-01 -2.653824e-01 -6.257131e-01
   outer loop
     vertex  4.544444e+02 -2.073963e+01  1.189836e+03
     vertex  4.549484e+02 -1.915130e+01  1.188571e+03
     vertex  4.552344e+02 -2.088144e+01  1.188970e+03
   endloop
 endfacet
 facet normal -6.815888e-01 -5.075257e-01 -5.271190e-01
   outer loop
     vertex  4.599594e+02 -2.697187e+01  1.187501e+03
     vertex  4.606961e+02 -2.532147e+01  1.184960e+03
     vertex  4.621113e+02 -2.969090e+01  1.187337e+03
   endloop
 endfacet
 facet normal -7.053372e-01 -4.834918e-01 -5.183967e-01
   outer loop
     vertex  4.599594e+02 -2.697187e+01  1.187501e+03
     vertex  4.594001e+02 -2.520654e+01  1.186616e+03
     vertex  4.606961e+02 -2.532147e+01  1.184960e+03
   endloop
 endfacet
 facet normal -7.269227e-01 -4.278439e-01 -5.371526e-01
   outer loop
     vertex  4.576822e+02 -2.467511e+01  1.188518e+03
     vertex  4.571963e+02 -2.294858e+01  1.187801e+03
     vertex  4.584549e+02 -2.491407e+01  1.187663e+03
   endloop
 endfacet
 facet normal -7.299371e-01 -3.524607e-01 -5.856307e-01
   outer loop
     vertex  4.556321e+02 -2.256861e+01  1.189522e+03
     vertex  4.560247e+02 -2.102356e+01  1.188103e+03
     vertex  4.564140e+02 -2.275837e+01  1.188662e+03
   endloop
 endfacet
 facet normal -7.172269e-01 -3.637275e-01 -5.943803e-01
   outer loop
     vertex  4.556321e+02 -2.256861e+01  1.189522e+03
     vertex  4.552344e+02 -2.088144e+01  1.188970e+03
     vertex  4.560247e+02 -2.102356e+01  1.188103e+03
   endloop
 endfacet
 facet normal -7.282656e-01 -4.773574e-01 -4.916900e-01
   outer loop
     vertex  4.590293e+02 -2.661989e+01  1.188537e+03
     vertex  4.594001e+02 -2.520654e+01  1.186616e+03
     vertex  4.599594e+02 -2.697187e+01  1.187501e+03
   endloop
 endfacet
 facet normal -7.089791e-01 -4.957969e-01 -5.015317e-01
   outer loop
     vertex  4.590293e+02 -2.661989e+01  1.188537e+03
     vertex  4.584549e+02 -2.491407e+01  1.187663e+03
     vertex  4.594001e+02 -2.520654e+01  1.186616e+03
   endloop
 endfacet
 facet normal -7.265063e-01 -4.279317e-01 -5.376459e-01
   outer loop
     vertex  4.569101e+02 -2.443683e+01  1.189372e+03
     vertex  4.571963e+02 -2.294858e+01  1.187801e+03
     vertex  4.576822e+02 -2.467511e+01  1.188518e+03
   endloop
 endfacet
 facet normal -7.105274e-01 -4.416957e-01 -5.477734e-01
   outer loop
     vertex  4.569101e+02 -2.443683e+01  1.189372e+03
     vertex  4.564140e+02 -2.275837e+01  1.188662e+03
     vertex  4.571963e+02 -2.294858e+01  1.187801e+03
   endloop
 endfacet
 facet normal -7.148639e-01 -3.738633e-01 -5.909280e-01
   outer loop
     vertex  4.548504e+02 -2.237927e+01  1.190382e+03
     vertex  4.544444e+02 -2.073963e+01  1.189836e+03
     vertex  4.552344e+02 -2.088144e+01  1.188970e+03
   endloop
 endfacet
 facet normal -7.721815e-01 -3.849750e-01 -5.054997e-01
   outer loop
     vertex  4.548504e+02 -2.237927e+01  1.190382e+03
     vertex  4.544292e+02 -2.328152e+01  1.191713e+03
     vertex  4.534935e+02 -1.980382e+01  1.190493e+03
   endloop
 endfacet
 facet normal -7.279234e-01 -3.622449e-01 -5.821564e-01
   outer loop
     vertex  4.548504e+02 -2.237927e+01  1.190382e+03
     vertex  4.552344e+02 -2.088144e+01  1.188970e+03
     vertex  4.556321e+02 -2.256861e+01  1.189522e+03
   endloop
 endfacet
 facet normal -7.463301e-01 -3.692702e-01 -5.537427e-01
   outer loop
     vertex  4.548504e+02 -2.237927e+01  1.190382e+03
     vertex  4.534935e+02 -1.980382e+01  1.190493e+03
     vertex  4.544444e+02 -2.073963e+01  1.189836e+03
   endloop
 endfacet
 facet normal -7.194369e-01 -5.431882e-01 -4.328478e-01
   outer loop
     vertex  4.606105e+02 -2.865602e+01  1.188533e+03
     vertex  4.599594e+02 -2.697187e+01  1.187501e+03
     vertex  4.621113e+02 -2.969090e+01  1.187337e+03
   endloop
 endfacet
 facet normal -7.049985e-01 -5.079079e-01 -4.949815e-01
   outer loop
     vertex  4.582688e+02 -2.633234e+01  1.189383e+03
     vertex  4.576822e+02 -2.467511e+01  1.188518e+03
     vertex  4.584549e+02 -2.491407e+01  1.187663e+03
   endloop
 endfacet
 facet normal -7.240382e-01 -4.917301e-01 -4.837047e-01
   outer loop
     vertex  4.582688e+02 -2.633234e+01  1.189383e+03
     vertex  4.584549e+02 -2.491407e+01  1.187663e+03
     vertex  4.590293e+02 -2.661989e+01  1.188537e+03
   endloop
 endfacet
 facet normal -7.071571e-01 -4.532103e-01 -5.427056e-01
   outer loop
     vertex  4.561384e+02 -2.419913e+01  1.190224e+03
     vertex  4.556321e+02 -2.256861e+01  1.189522e+03
     vertex  4.564140e+02 -2.275837e+01  1.188662e+03
   endloop
 endfacet
 facet normal -7.235339e-01 -4.391254e-01 -5.326046e-01
   outer loop
     vertex  4.561384e+02 -2.419913e+01  1.190224e+03
     vertex  4.564140e+02 -2.275837e+01  1.188662e+03
     vertex  4.569101e+02 -2.443683e+01  1.189372e+03
   endloop
 endfacet
 facet normal -7.235106e-01 -5.417168e-01 -4.278729e-01
   outer loop
     vertex  4.596976e+02 -2.824408e+01  1.189555e+03
     vertex  4.599594e+02 -2.697187e+01  1.187501e+03
     vertex  4.606105e+02 -2.865602e+01  1.188533e+03
   endloop
 endfacet
 facet normal -7.009184e-01 -5.628456e-01 -4.380848e-01
   outer loop
     vertex  4.596976e+02 -2.824408e+01  1.189555e+03
     vertex  4.590293e+02 -2.661989e+01  1.188537e+03
     vertex  4.599594e+02 -2.697187e+01  1.187501e+03
   endloop
 endfacet
 facet normal -7.199641e-01 -5.039215e-01 -4.771947e-01
   outer loop
     vertex  4.575087e+02 -2.604565e+01  1.190227e+03
     vertex  4.576822e+02 -2.467511e+01  1.188518e+03
     vertex  4.582688e+02 -2.633234e+01  1.189383e+03
   endloop
 endfacet
 facet normal -7.005429e-01 -5.203184e-01 -4.883731e-01
   outer loop
     vertex  4.575087e+02 -2.604565e+01  1.190227e+03
     vertex  4.569101e+02 -2.443683e+01  1.189372e+03
     vertex  4.576822e+02 -2.467511e+01  1.188518e+03
   endloop
 endfacet
 facet normal -7.203919e-01 -4.506495e-01 -5.272102e-01
   outer loop
     vertex  4.553668e+02 -2.396194e+01  1.191076e+03
     vertex  4.556321e+02 -2.256861e+01  1.189522e+03
     vertex  4.561384e+02 -2.419913e+01  1.190224e+03
   endloop
 endfacet
 facet normal -7.029373e-01 -4.652304e-01 -5.379961e-01
   outer loop
     vertex  4.553668e+02 -2.396194e+01  1.191076e+03
     vertex  4.544292e+02 -2.328152e+01  1.191713e+03
     vertex  4.548504e+02 -2.237927e+01  1.190382e+03
   endloop
 endfacet
 facet normal -7.035299e-01 -4.651242e-01 -5.373129e-01
   outer loop
     vertex  4.553668e+02 -2.396194e+01  1.191076e+03
     vertex  4.548504e+02 -2.237927e+01  1.190382e+03
     vertex  4.556321e+02 -2.256861e+01  1.189522e+03
   endloop
 endfacet
 facet normal -6.715432e-01 -6.432741e-01 -3.677338e-01
   outer loop
     vertex  4.613487e+02 -3.024696e+01  1.189702e+03
     vertex  4.621113e+02 -2.969090e+01  1.187337e+03
     vertex  4.640136e+02 -3.350323e+01  1.190532e+03
   endloop
 endfacet
 facet normal -7.088233e-01 -6.007127e-01 -3.697483e-01
   outer loop
     vertex  4.613487e+02 -3.024696e+01  1.189702e+03
     vertex  4.606105e+02 -2.865602e+01  1.188533e+03
     vertex  4.621113e+02 -2.969090e+01  1.187337e+03
   endloop
 endfacet
 facet normal -6.956735e-01 -5.756911e-01 -4.296721e-01
   outer loop
     vertex  4.589510e+02 -2.790758e+01  1.190389e+03
     vertex  4.582688e+02 -2.633234e+01  1.189383e+03
     vertex  4.590293e+02 -2.661989e+01  1.188537e+03
   endloop
 endfacet
 facet normal -6.950951e-01 -5.758780e-01 -4.303571e-01
   outer loop
     vertex  4.589510e+02 -2.790758e+01  1.190389e+03
     vertex  4.575087e+02 -2.604565e+01  1.190227e+03
     vertex  4.582688e+02 -2.633234e+01  1.189383e+03
   endloop
 endfacet
 facet normal -7.178761e-01 -5.570013e-01 -4.176165e-01
   outer loop
     vertex  4.589510e+02 -2.790758e+01  1.190389e+03
     vertex  4.590293e+02 -2.661989e+01  1.188537e+03
     vertex  4.596976e+02 -2.824408e+01  1.189555e+03
   endloop
 endfacet
 facet normal -6.958365e-01 -5.330305e-01 -4.813418e-01
   outer loop
     vertex  4.567489e+02 -2.575968e+01  1.191070e+03
     vertex  4.561384e+02 -2.419913e+01  1.190224e+03
     vertex  4.569101e+02 -2.443683e+01  1.189372e+03
   endloop
 endfacet
 facet normal -7.157525e-01 -5.163256e-01 -4.702193e-01
   outer loop
     vertex  4.567489e+02 -2.575968e+01  1.191070e+03
     vertex  4.569101e+02 -2.443683e+01  1.189372e+03
     vertex  4.575087e+02 -2.604565e+01  1.190227e+03
   endloop
 endfacet
 facet normal -6.924962e-01 -6.201809e-01 -3.685440e-01
   outer loop
     vertex  4.604548e+02 -2.977462e+01  1.190708e+03
     vertex  4.596976e+02 -2.824408e+01  1.189555e+03
     vertex  4.606105e+02 -2.865602e+01  1.188533e+03
   endloop
 endfacet
 facet normal -7.181538e-01 -5.965863e-01 -3.582457e-01
   outer loop
     vertex  4.604548e+02 -2.977462e+01  1.190708e+03
     vertex  4.606105e+02 -2.865602e+01  1.188533e+03
     vertex  4.613487e+02 -3.024696e+01  1.189702e+03
   endloop
 endfacet
 facet normal -7.075318e-01 -5.828375e-01 -3.996240e-01
   outer loop
     vertex  4.582046e+02 -2.757213e+01  1.191222e+03
     vertex  4.575087e+02 -2.604565e+01  1.190227e+03
     vertex  4.589510e+02 -2.790758e+01  1.190389e+03
   endloop
 endfacet
 facet normal -7.521362e-01 -5.657397e-01 -3.379788e-01
   outer loop
     vertex  4.559890e+02 -2.547427e+01  1.191912e+03
     vertex  4.560807e+02 -2.676298e+01  1.193865e+03
     vertex  4.544292e+02 -2.328152e+01  1.191713e+03
   endloop
 endfacet
 facet normal -7.113520e-01 -5.290155e-01 -4.627321e-01
   outer loop
     vertex  4.559890e+02 -2.547427e+01  1.191912e+03
     vertex  4.561384e+02 -2.419913e+01  1.190224e+03
     vertex  4.567489e+02 -2.575968e+01  1.191070e+03
   endloop
 endfacet
 facet normal -6.908278e-01 -5.461122e-01 -4.738338e-01
   outer loop
     vertex  4.559890e+02 -2.547427e+01  1.191912e+03
     vertex  4.553668e+02 -2.396194e+01  1.191076e+03
     vertex  4.561384e+02 -2.419913e+01  1.190224e+03
   endloop
 endfacet
 facet normal -7.044433e-01 -5.426659e-01 -4.574641e-01
   outer loop
     vertex  4.559890e+02 -2.547427e+01  1.191912e+03
     vertex  4.544292e+02 -2.328152e+01  1.191713e+03
     vertex  4.553668e+02 -2.396194e+01  1.191076e+03
   endloop
 endfacet
 facet normal -7.110795e-01 -6.122171e-01 -3.457689e-01
   outer loop
     vertex  4.597234e+02 -2.938881e+01  1.191529e+03
     vertex  4.596976e+02 -2.824408e+01  1.189555e+03
     vertex  4.604548e+02 -2.977462e+01  1.190708e+03
   endloop
 endfacet
 facet normal -6.859694e-01 -6.332892e-01 -3.583166e-01
   outer loop
     vertex  4.597234e+02 -2.938881e+01  1.191529e+03
     vertex  4.589510e+02 -2.790758e+01  1.190389e+03
     vertex  4.596976e+02 -2.824408e+01  1.189555e+03
   endloop
 endfacet
 facet normal -6.837125e-01 -6.021977e-01 -4.121835e-01
   outer loop
     vertex  4.574581e+02 -2.723751e+01  1.192053e+03
     vertex  4.567489e+02 -2.575968e+01  1.191070e+03
     vertex  4.575087e+02 -2.604565e+01  1.190227e+03
   endloop
 endfacet
 facet normal -7.069767e-01 -5.830356e-01 -4.003165e-01
   outer loop
     vertex  4.574581e+02 -2.723751e+01  1.192053e+03
     vertex  4.575087e+02 -2.604565e+01  1.190227e+03
     vertex  4.582046e+02 -2.757213e+01  1.191222e+03
   endloop
 endfacet
 facet normal -7.120666e-01 -6.502317e-01 -2.648770e-01
   outer loop
     vertex  4.625871e+02 -3.240268e+01  1.191665e+03
     vertex  4.613487e+02 -3.024696e+01  1.189702e+03
     vertex  4.640136e+02 -3.350323e+01  1.190532e+03
   endloop
 endfacet
 facet normal -6.787221e-01 -6.466767e-01 -3.480598e-01
   outer loop
     vertex  4.589919e+02 -2.900424e+01  1.192347e+03
     vertex  4.582046e+02 -2.757213e+01  1.191222e+03
     vertex  4.589510e+02 -2.790758e+01  1.190389e+03
   endloop
 endfacet
 facet normal -7.043909e-01 -6.254473e-01 -3.356326e-01
   outer loop
     vertex  4.589919e+02 -2.900424e+01  1.192347e+03
     vertex  4.589510e+02 -2.790758e+01  1.190389e+03
     vertex  4.597234e+02 -2.938881e+01  1.191529e+03
   endloop
 endfacet
 facet normal -6.781727e-01 -6.468958e-01 -3.487228e-01
   outer loop
     vertex  4.589919e+02 -2.900424e+01  1.192347e+03
     vertex  4.574581e+02 -2.723751e+01  1.192053e+03
     vertex  4.582046e+02 -2.757213e+01  1.191222e+03
   endloop
 endfacet
 facet normal -7.058961e-01 -6.059974e-01 -3.667123e-01
   outer loop
     vertex  4.567116e+02 -2.690350e+01  1.192883e+03
     vertex  4.560807e+02 -2.676298e+01  1.193865e+03
     vertex  4.559890e+02 -2.547427e+01  1.191912e+03
   endloop
 endfacet
 facet normal -7.012466e-01 -5.963279e-01 -3.906998e-01
   outer loop
     vertex  4.567116e+02 -2.690350e+01  1.192883e+03
     vertex  4.567489e+02 -2.575968e+01  1.191070e+03
     vertex  4.574581e+02 -2.723751e+01  1.192053e+03
   endloop
 endfacet
 facet normal -6.772701e-01 -6.158545e-01 -4.025277e-01
   outer loop
     vertex  4.567116e+02 -2.690350e+01  1.192883e+03
     vertex  4.559890e+02 -2.547427e+01  1.191912e+03
     vertex  4.567489e+02 -2.575968e+01  1.191070e+03
   endloop
 endfacet
 facet normal -6.940275e-01 -6.908061e-01 -2.027631e-01
   outer loop
     vertex  4.630643e+02 -3.310433e+01  1.192422e+03
     vertex  4.625871e+02 -3.240268e+01  1.191665e+03
     vertex  4.640136e+02 -3.350323e+01  1.190532e+03
   endloop
 endfacet
 facet normal -6.768141e-01 -6.798427e-01 -2.823767e-01
   outer loop
     vertex  4.617233e+02 -3.184037e+01  1.192641e+03
     vertex  4.604548e+02 -2.977462e+01  1.190708e+03
     vertex  4.613487e+02 -3.024696e+01  1.189702e+03
   endloop
 endfacet
 facet normal -7.157506e-01 -6.480772e-01 -2.601865e-01
   outer loop
     vertex  4.617233e+02 -3.184037e+01  1.192641e+03
     vertex  4.613487e+02 -3.024696e+01  1.189702e+03
     vertex  4.625871e+02 -3.240268e+01  1.191665e+03
   endloop
 endfacet
 facet normal -6.908765e-01 -6.519008e-01 -3.125941e-01
   outer loop
     vertex  4.582602e+02 -2.862060e+01  1.193164e+03
     vertex  4.574581e+02 -2.723751e+01  1.192053e+03
     vertex  4.589919e+02 -2.900424e+01  1.192347e+03
   endloop
 endfacet
 facet normal -6.716403e-01 -7.171605e-01 -1.859572e-01
   outer loop
     vertex  4.635386e+02 -3.374354e+01  1.193174e+03
     vertex  4.630643e+02 -3.310433e+01  1.192422e+03
     vertex  4.640136e+02 -3.350323e+01  1.190532e+03
   endloop
 endfacet
 facet normal -6.998398e-01 -6.870046e-01 -1.955734e-01
   outer loop
     vertex  4.622117e+02 -3.250997e+01  1.193385e+03
     vertex  4.625871e+02 -3.240268e+01  1.191665e+03
     vertex  4.630643e+02 -3.310433e+01  1.192422e+03
   endloop
 endfacet
 facet normal -6.786497e-01 -7.088378e-01 -1.923110e-01
   outer loop
     vertex  4.622117e+02 -3.250997e+01  1.193385e+03
     vertex  4.617233e+02 -3.184037e+01  1.192641e+03
     vertex  4.625871e+02 -3.240268e+01  1.191665e+03
   endloop
 endfacet
 facet normal -6.686841e-01 -6.927283e-01 -2.701648e-01
   outer loop
     vertex  4.610163e+02 -3.138111e+01  1.193437e+03
     vertex  4.597234e+02 -2.938881e+01  1.191529e+03
     vertex  4.604548e+02 -2.977462e+01  1.190708e+03
   endloop
 endfacet
 facet normal -7.069768e-01 -6.634296e-01 -2.450407e-01
   outer loop
     vertex  4.610163e+02 -3.138111e+01  1.193437e+03
     vertex  4.604548e+02 -2.977462e+01  1.190708e+03
     vertex  4.617233e+02 -3.184037e+01  1.192641e+03
   endloop
 endfacet
 facet normal -6.780842e-01 -7.091917e-01 -1.930001e-01
   outer loop
     vertex  4.610163e+02 -3.138111e+01  1.193437e+03
     vertex  4.617233e+02 -3.184037e+01  1.192641e+03
     vertex  4.622117e+02 -3.250997e+01  1.193385e+03
   endloop
 endfacet
 facet normal -6.996901e-01 -6.986340e-01 -1.494804e-01
   outer loop
     vertex  4.575284e+02 -2.823760e+01  1.193980e+03
     vertex  4.585687e+02 -2.994856e+01  1.197107e+03
     vertex  4.560807e+02 -2.676298e+01  1.193865e+03
   endloop
 endfacet
 facet normal -6.611102e-01 -6.747420e-01 -3.281107e-01
   outer loop
     vertex  4.575284e+02 -2.823760e+01  1.193980e+03
     vertex  4.560807e+02 -2.676298e+01  1.193865e+03
     vertex  4.567116e+02 -2.690350e+01  1.192883e+03
   endloop
 endfacet
 facet normal -6.633323e-01 -6.738729e-01 -3.254008e-01
   outer loop
     vertex  4.575284e+02 -2.823760e+01  1.193980e+03
     vertex  4.567116e+02 -2.690350e+01  1.192883e+03
     vertex  4.574581e+02 -2.723751e+01  1.192053e+03
   endloop
 endfacet
 facet normal -6.904763e-01 -6.520795e-01 -3.131052e-01
   outer loop
     vertex  4.575284e+02 -2.823760e+01  1.193980e+03
     vertex  4.574581e+02 -2.723751e+01  1.192053e+03
     vertex  4.582602e+02 -2.862060e+01  1.193164e+03
   endloop
 endfacet
 facet normal -6.715716e-01 -7.199300e-01 -1.751923e-01
   outer loop
     vertex  4.640294e+02 -3.435036e+01  1.193953e+03
     vertex  4.640136e+02 -3.350323e+01  1.190532e+03
     vertex  4.663275e+02 -3.660755e+01  1.194419e+03
   endloop
 endfacet
 facet normal -6.367271e-01 -7.491588e-01 -1.825916e-01
   outer loop
     vertex  4.640294e+02 -3.435036e+01  1.193953e+03
     vertex  4.635386e+02 -3.374354e+01  1.193174e+03
     vertex  4.640136e+02 -3.350323e+01  1.190532e+03
   endloop
 endfacet
 facet normal -6.963934e-01 -7.004641e-01 -1.561609e-01
   outer loop
     vertex  4.626967e+02 -3.311847e+01  1.194125e+03
     vertex  4.630643e+02 -3.310433e+01  1.192422e+03
     vertex  4.635386e+02 -3.374354e+01  1.193174e+03
   endloop
 endfacet
 facet normal -6.748109e-01 -7.222346e-01 -1.516821e-01
   outer loop
     vertex  4.626967e+02 -3.311847e+01  1.194125e+03
     vertex  4.622117e+02 -3.250997e+01  1.193385e+03
     vertex  4.630643e+02 -3.310433e+01  1.192422e+03
   endloop
 endfacet
 facet normal -6.810352e-01 -7.136452e-01 -1.640172e-01
   outer loop
     vertex  4.615137e+02 -3.202457e+01  1.194172e+03
     vertex  4.610163e+02 -3.138111e+01  1.193437e+03
     vertex  4.622117e+02 -3.250997e+01  1.193385e+03
   endloop
 endfacet
 facet normal -6.597246e-01 -7.058553e-01 -2.579376e-01
   outer loop
     vertex  4.603088e+02 -3.092335e+01  1.194231e+03
     vertex  4.589919e+02 -2.900424e+01  1.192347e+03
     vertex  4.597234e+02 -2.938881e+01  1.191529e+03
   endloop
 endfacet
 facet normal -6.987612e-01 -6.764259e-01 -2.327676e-01
   outer loop
     vertex  4.603088e+02 -3.092335e+01  1.194231e+03
     vertex  4.597234e+02 -2.938881e+01  1.191529e+03
     vertex  4.610163e+02 -3.138111e+01  1.193437e+03
   endloop
 endfacet
 facet normal -6.932874e-01 -7.110613e-01 -1.172365e-01
   outer loop
     vertex  4.631982e+02 -3.369451e+01  1.194890e+03
     vertex  4.635386e+02 -3.374354e+01  1.193174e+03
     vertex  4.640294e+02 -3.435036e+01  1.193953e+03
   endloop
 endfacet
 facet normal -6.708868e-01 -7.330280e-01 -1.121643e-01
   outer loop
     vertex  4.631982e+02 -3.369451e+01  1.194890e+03
     vertex  4.626967e+02 -3.311847e+01  1.194125e+03
     vertex  4.635386e+02 -3.374354e+01  1.193174e+03
   endloop
 endfacet
 facet normal -6.650081e-01 -7.341367e-01 -1.371403e-01
   outer loop
     vertex  4.620073e+02 -3.260800e+01  1.194901e+03
     vertex  4.615137e+02 -3.202457e+01  1.194172e+03
     vertex  4.622117e+02 -3.250997e+01  1.193385e+03
   endloop
 endfacet
 facet normal -6.702622e-01 -7.334837e-01 -1.129169e-01
   outer loop
     vertex  4.620073e+02 -3.260800e+01  1.194901e+03
     vertex  4.626967e+02 -3.311847e+01  1.194125e+03
     vertex  4.631982e+02 -3.369451e+01  1.194890e+03
   endloop
 endfacet
 facet normal -6.854120e-01 -7.148346e-01 -1.386427e-01
   outer loop
     vertex  4.620073e+02 -3.260800e+01  1.194901e+03
     vertex  4.622117e+02 -3.250997e+01  1.193385e+03
     vertex  4.626967e+02 -3.311847e+01  1.194125e+03
   endloop
 endfacet
 facet normal -6.800119e-01 -7.143237e-01 -1.653044e-01
   outer loop
     vertex  4.608150e+02 -3.154076e+01  1.194955e+03
     vertex  4.610163e+02 -3.138111e+01  1.193437e+03
     vertex  4.615137e+02 -3.202457e+01  1.194172e+03
   endloop
 endfacet
 facet normal -6.592972e-01 -7.336468e-01 -1.645891e-01
   outer loop
     vertex  4.608150e+02 -3.154076e+01  1.194955e+03
     vertex  4.603088e+02 -3.092335e+01  1.194231e+03
     vertex  4.610163e+02 -3.138111e+01  1.193437e+03
   endloop
 endfacet
 facet normal -6.903827e-01 -6.892987e-01 -2.196338e-01
   outer loop
     vertex  4.596008e+02 -3.046667e+01  1.195023e+03
     vertex  4.589919e+02 -2.900424e+01  1.192347e+03
     vertex  4.603088e+02 -3.092335e+01  1.194231e+03
   endloop
 endfacet
 facet normal -6.586143e-01 -7.340713e-01 -1.654281e-01
   outer loop
     vertex  4.596008e+02 -3.046667e+01  1.195023e+03
     vertex  4.603088e+02 -3.092335e+01  1.194231e+03
     vertex  4.608150e+02 -3.154076e+01  1.194955e+03
   endloop
 endfacet
 facet normal -6.504736e-01 -7.189545e-01 -2.449254e-01
   outer loop
     vertex  4.596008e+02 -3.046667e+01  1.195023e+03
     vertex  4.582602e+02 -2.862060e+01  1.193164e+03
     vertex  4.589919e+02 -2.900424e+01  1.192347e+03
   endloop
 endfacet
 facet normal -6.722342e-01 -7.358712e-01 -8.120799e-02
   outer loop
     vertex  4.649928e+02 -3.539913e+01  1.195481e+03
     vertex  4.631982e+02 -3.369451e+01  1.194890e+03
     vertex  4.640294e+02 -3.435036e+01  1.193953e+03
   endloop
 endfacet
 facet normal -6.939262e-01 -7.179253e-01 -5.522405e-02
   outer loop
     vertex  4.649928e+02 -3.539913e+01  1.195481e+03
     vertex  4.640294e+02 -3.435036e+01  1.193953e+03
     vertex  4.663275e+02 -3.660755e+01  1.194419e+03
   endloop
 endfacet
 facet normal -6.721039e-01 -7.358066e-01 -8.285534e-02
   outer loop
     vertex  4.625176e+02 -3.315896e+01  1.195655e+03
     vertex  4.620073e+02 -3.260800e+01  1.194901e+03
     vertex  4.631982e+02 -3.369451e+01  1.194890e+03
   endloop
 endfacet
 facet normal -6.542678e-01 -7.462533e-01 -1.226363e-01
   outer loop
     vertex  4.613172e+02 -3.209923e+01  1.195674e+03
     vertex  4.608150e+02 -3.154076e+01  1.194955e+03
     vertex  4.615137e+02 -3.202457e+01  1.194172e+03
   endloop
 endfacet
 facet normal -6.753086e-01 -7.269633e-01 -1.244291e-01
   outer loop
     vertex  4.613172e+02 -3.209923e+01  1.195674e+03
     vertex  4.615137e+02 -3.202457e+01  1.194172e+03
     vertex  4.620073e+02 -3.260800e+01  1.194901e+03
   endloop
 endfacet
 facet normal -6.607279e-01 -7.383731e-01 -1.350693e-01
   outer loop
     vertex  4.601158e+02 -3.105812e+01  1.195737e+03
     vertex  4.596008e+02 -3.046667e+01  1.195023e+03
     vertex  4.608150e+02 -3.154076e+01  1.194955e+03
   endloop
 endfacet
 facet normal -6.817537e-01 -7.020926e-01 -2.056161e-01
   outer loop
     vertex  4.588926e+02 -3.001071e+01  1.195814e+03
     vertex  4.582602e+02 -2.862060e+01  1.193164e+03
     vertex  4.596008e+02 -3.046667e+01  1.195023e+03
   endloop
 endfacet
 facet normal -6.484783e-01 -7.462269e-01 -1.504038e-01
   outer loop
     vertex  4.588926e+02 -3.001071e+01  1.195814e+03
     vertex  4.596008e+02 -3.046667e+01  1.195023e+03
     vertex  4.601158e+02 -3.105812e+01  1.195737e+03
   endloop
 endfacet
 facet normal -7.069145e-01 -6.925389e-01 -1.437421e-01
   outer loop
     vertex  4.588926e+02 -3.001071e+01  1.195814e+03
     vertex  4.585687e+02 -2.994856e+01  1.197107e+03
     vertex  4.575284e+02 -2.823760e+01  1.193980e+03
   endloop
 endfacet
 facet normal -6.408573e-01 -7.320511e-01 -2.310911e-01
   outer loop
     vertex  4.588926e+02 -3.001071e+01  1.195814e+03
     vertex  4.575284e+02 -2.823760e+01  1.193980e+03
     vertex  4.582602e+02 -2.862060e+01  1.193164e+03
   endloop
 endfacet
 facet normal -6.821626e-01 -7.303542e-01 -3.517158e-02
   outer loop
     vertex  4.641817e+02 -3.468543e+01  1.196391e+03
     vertex  4.631982e+02 -3.369451e+01  1.194890e+03
     vertex  4.649928e+02 -3.539913e+01  1.195481e+03
   endloop
 endfacet
 facet normal -6.492287e-01 -7.561671e-01 -8.193577e-02
   outer loop
     vertex  4.618360e+02 -3.262518e+01  1.196417e+03
     vertex  4.613172e+02 -3.209923e+01  1.195674e+03
     vertex  4.620073e+02 -3.260800e+01  1.194901e+03
   endloop
 endfacet
 facet normal -6.710369e-01 -7.366297e-01 -8.417889e-02
   outer loop
     vertex  4.618360e+02 -3.262518e+01  1.196417e+03
     vertex  4.620073e+02 -3.260800e+01  1.194901e+03
     vertex  4.625176e+02 -3.315896e+01  1.195655e+03
   endloop
 endfacet
 facet normal -6.649945e-01 -7.387992e-01 -1.093524e-01
   outer loop
     vertex  4.606265e+02 -3.159169e+01  1.196446e+03
     vertex  4.608150e+02 -3.154076e+01  1.194955e+03
     vertex  4.613172e+02 -3.209923e+01  1.195674e+03
   endloop
 endfacet
 facet normal -6.432510e-01 -7.581049e-01 -1.072621e-01
   outer loop
     vertex  4.606265e+02 -3.159169e+01  1.196446e+03
     vertex  4.601158e+02 -3.105812e+01  1.195737e+03
     vertex  4.608150e+02 -3.154076e+01  1.194955e+03
   endloop
 endfacet
 facet normal -6.716377e-01 -7.408789e-01 -1.125654e-03
   outer loop
     vertex  4.660549e+02 -3.636460e+01  1.197167e+03
     vertex  4.649928e+02 -3.539913e+01  1.195481e+03
     vertex  4.663275e+02 -3.660755e+01  1.194419e+03
   endloop
 endfacet
 facet normal -6.501098e-01 -7.504232e-01 -1.192566e-01
   outer loop
     vertex  4.594162e+02 -3.057624e+01  1.196518e+03
     vertex  4.588926e+02 -3.001071e+01  1.195814e+03
     vertex  4.601158e+02 -3.105812e+01  1.195737e+03
   endloop
 endfacet
 facet normal -6.452900e-01 -7.535791e-01 -1.253764e-01
   outer loop
     vertex  4.594162e+02 -3.057624e+01  1.196518e+03
     vertex  4.585687e+02 -2.994856e+01  1.197107e+03
     vertex  4.588926e+02 -3.001071e+01  1.195814e+03
   endloop
 endfacet
 facet normal -6.490256e-01 -7.593859e-01 -4.581295e-02
   outer loop
     vertex  4.635174e+02 -3.410268e+01  1.197133e+03
     vertex  4.625176e+02 -3.315896e+01  1.195655e+03
     vertex  4.631982e+02 -3.369451e+01  1.194890e+03
   endloop
 endfacet
 facet normal -6.814726e-01 -7.309566e-01 -3.602152e-02
   outer loop
     vertex  4.635174e+02 -3.410268e+01  1.197133e+03
     vertex  4.631982e+02 -3.369451e+01  1.194890e+03
     vertex  4.641817e+02 -3.468543e+01  1.196391e+03
   endloop
 endfacet
 facet normal -6.601699e-01 -7.479861e-01 -6.850212e-02
   outer loop
     vertex  4.611538e+02 -3.209270e+01  1.197177e+03
     vertex  4.613172e+02 -3.209923e+01  1.195674e+03
     vertex  4.618360e+02 -3.262518e+01  1.196417e+03
   endloop
 endfacet
 facet normal -6.376332e-01 -7.675104e-01 -6.596797e-02
   outer loop
     vertex  4.611538e+02 -3.209270e+01  1.197177e+03
     vertex  4.606265e+02 -3.159169e+01  1.196446e+03
     vertex  4.613172e+02 -3.209923e+01  1.195674e+03
   endloop
 endfacet
 facet normal -6.543740e-01 -7.503775e-01 -9.342501e-02
   outer loop
     vertex  4.599354e+02 -3.108497e+01  1.197216e+03
     vertex  4.601158e+02 -3.105812e+01  1.195737e+03
     vertex  4.606265e+02 -3.159169e+01  1.196446e+03
   endloop
 endfacet
 facet normal -6.325023e-01 -7.692817e-01 -9.025843e-02
   outer loop
     vertex  4.599354e+02 -3.108497e+01  1.197216e+03
     vertex  4.585687e+02 -2.994856e+01  1.197107e+03
     vertex  4.594162e+02 -3.057624e+01  1.196518e+03
   endloop
 endfacet
 facet normal -6.318765e-01 -7.697046e-01 -9.103202e-02
   outer loop
     vertex  4.599354e+02 -3.108497e+01  1.197216e+03
     vertex  4.594162e+02 -3.057624e+01  1.196518e+03
     vertex  4.601158e+02 -3.105812e+01  1.195737e+03
   endloop
 endfacet
 facet normal -6.677884e-01 -7.441965e-01  1.517543e-02
   outer loop
     vertex  4.666976e+02 -3.686279e+01  1.198188e+03
     vertex  4.663275e+02 -3.660755e+01  1.194419e+03
     vertex  4.689616e+02 -3.888095e+01  1.198843e+03
   endloop
 endfacet
 facet normal -6.203341e-01 -7.842989e-01  7.800312e-03
   outer loop
     vertex  4.666976e+02 -3.686279e+01  1.198188e+03
     vertex  4.660549e+02 -3.636460e+01  1.197167e+03
     vertex  4.663275e+02 -3.660755e+01  1.194419e+03
   endloop
 endfacet
 facet normal -6.525321e-01 -7.576551e-01  1.267155e-02
   outer loop
     vertex  4.652645e+02 -3.559031e+01  1.198044e+03
     vertex  4.641817e+02 -3.468543e+01  1.196391e+03
     vertex  4.649928e+02 -3.539913e+01  1.195481e+03
   endloop
 endfacet
 facet normal -6.888266e-01 -7.246776e-01  1.898038e-02
   outer loop
     vertex  4.652645e+02 -3.559031e+01  1.198044e+03
     vertex  4.649928e+02 -3.539913e+01  1.195481e+03
     vertex  4.660549e+02 -3.636460e+01  1.197167e+03
   endloop
 endfacet
 facet normal -6.660528e-01 -7.437711e-01  5.637580e-02
   outer loop
     vertex  4.652645e+02 -3.559031e+01  1.198044e+03
     vertex  4.660549e+02 -3.636460e+01  1.197167e+03
     vertex  4.666976e+02 -3.686279e+01  1.198188e+03
   endloop
 endfacet
 facet normal -6.701825e-01 -7.419173e-01 -2.034754e-02
   outer loop
     vertex  4.628520e+02 -3.352187e+01  1.197872e+03
     vertex  4.625176e+02 -3.315896e+01  1.195655e+03
     vertex  4.635174e+02 -3.410268e+01  1.197133e+03
   endloop
 endfacet
 facet normal -6.368971e-01 -7.703640e-01 -3.002352e-02
   outer loop
     vertex  4.628520e+02 -3.352187e+01  1.197872e+03
     vertex  4.618360e+02 -3.262518e+01  1.196417e+03
     vertex  4.625176e+02 -3.315896e+01  1.195655e+03
   endloop
 endfacet
 facet normal -6.361615e-01 -7.709373e-01 -3.089040e-02
   outer loop
     vertex  4.628520e+02 -3.352187e+01  1.197872e+03
     vertex  4.611538e+02 -3.209270e+01  1.197177e+03
     vertex  4.618360e+02 -3.262518e+01  1.196417e+03
   endloop
 endfacet
 facet normal -6.686780e-01 -7.365503e-01  1.018011e-01
   outer loop
     vertex  4.604712e+02 -3.156109e+01  1.197937e+03
     vertex  4.619502e+02 -3.240938e+01  1.201514e+03
     vertex  4.585687e+02 -2.994856e+01  1.197107e+03
   endloop
 endfacet
 facet normal -6.489748e-01 -7.590315e-01 -5.198904e-02
   outer loop
     vertex  4.604712e+02 -3.156109e+01  1.197937e+03
     vertex  4.606265e+02 -3.159169e+01  1.196446e+03
     vertex  4.611538e+02 -3.209270e+01  1.197177e+03
   endloop
 endfacet
 facet normal -6.256666e-01 -7.785399e-01 -4.916197e-02
   outer loop
     vertex  4.604712e+02 -3.156109e+01  1.197937e+03
     vertex  4.599354e+02 -3.108497e+01  1.197216e+03
     vertex  4.606265e+02 -3.159169e+01  1.196446e+03
   endloop
 endfacet
 facet normal -6.373500e-01 -7.697930e-01 -3.469480e-02
   outer loop
     vertex  4.604712e+02 -3.156109e+01  1.197937e+03
     vertex  4.585687e+02 -2.994856e+01  1.197107e+03
     vertex  4.599354e+02 -3.108497e+01  1.197216e+03
   endloop
 endfacet
 facet normal -6.792291e-01 -7.250771e-01  1.136265e-01
   outer loop
     vertex  4.672674e+02 -3.725469e+01  1.199093e+03
     vertex  4.666976e+02 -3.686279e+01  1.198188e+03
     vertex  4.689616e+02 -3.888095e+01  1.198843e+03
   endloop
 endfacet
 facet normal -6.754273e-01 -7.363779e-01  3.931311e-02
   outer loop
     vertex  4.646169e+02 -3.495815e+01  1.198759e+03
     vertex  4.641817e+02 -3.468543e+01  1.196391e+03
     vertex  4.652645e+02 -3.559031e+01  1.198044e+03
   endloop
 endfacet
 facet normal -6.404683e-01 -7.674249e-01  2.931485e-02
   outer loop
     vertex  4.646169e+02 -3.495815e+01  1.198759e+03
     vertex  4.635174e+02 -3.410268e+01  1.197133e+03
     vertex  4.641817e+02 -3.468543e+01  1.196391e+03
   endloop
 endfacet
 facet normal -6.515878e-01 -7.546506e-01  7.704474e-02
   outer loop
     vertex  4.659188e+02 -3.605321e+01  1.199043e+03
     vertex  4.646169e+02 -3.495815e+01  1.198759e+03
     vertex  4.652645e+02 -3.559031e+01  1.198044e+03
   endloop
 endfacet
 facet normal -6.662732e-01 -7.398194e-01  9.352696e-02
   outer loop
     vertex  4.659188e+02 -3.605321e+01  1.199043e+03
     vertex  4.652645e+02 -3.559031e+01  1.198044e+03
     vertex  4.666976e+02 -3.686279e+01  1.198188e+03
   endloop
 endfacet
 facet normal -6.472147e-01 -7.621766e-01  1.414132e-02
   outer loop
     vertex  4.621858e+02 -3.294248e+01  1.198610e+03
     vertex  4.611538e+02 -3.209270e+01  1.197177e+03
     vertex  4.628520e+02 -3.352187e+01  1.197872e+03
   endloop
 endfacet
 facet normal -6.239905e-01 -7.813076e-01 -1.394016e-02
   outer loop
     vertex  4.621858e+02 -3.294248e+01  1.198610e+03
     vertex  4.604712e+02 -3.156109e+01  1.197937e+03
     vertex  4.611538e+02 -3.209270e+01  1.197177e+03
   endloop
 endfacet
 facet normal -6.760693e-01 -7.285616e-01  1.101281e-01
   outer loop
     vertex  4.664982e+02 -3.641457e+01  1.199929e+03
     vertex  4.666976e+02 -3.686279e+01  1.198188e+03
     vertex  4.672674e+02 -3.725469e+01  1.199093e+03
   endloop
 endfacet
 facet normal -6.498144e-01 -7.507443e-01  1.188454e-01
   outer loop
     vertex  4.664982e+02 -3.641457e+01  1.199929e+03
     vertex  4.659188e+02 -3.605321e+01  1.199043e+03
     vertex  4.666976e+02 -3.686279e+01  1.198188e+03
   endloop
 endfacet
 facet normal -6.274032e-01 -7.773360e-01  4.597730e-02
   outer loop
     vertex  4.639681e+02 -3.432807e+01  1.199472e+03
     vertex  4.628520e+02 -3.352187e+01  1.197872e+03
     vertex  4.635174e+02 -3.410268e+01  1.197133e+03
   endloop
 endfacet
 facet normal -6.633076e-01 -7.462568e-01  5.589044e-02
   outer loop
     vertex  4.639681e+02 -3.432807e+01  1.199472e+03
     vertex  4.635174e+02 -3.410268e+01  1.197133e+03
     vertex  4.646169e+02 -3.495815e+01  1.198759e+03
   endloop
 endfacet
 facet normal -6.538061e-01 -7.484769e-01  1.109950e-01
   outer loop
     vertex  4.652806e+02 -3.539226e+01  1.199741e+03
     vertex  4.646169e+02 -3.495815e+01  1.198759e+03
     vertex  4.659188e+02 -3.605321e+01  1.199043e+03
   endloop
 endfacet
 facet normal -6.346315e-01 -7.721537e-01  3.196208e-02
   outer loop
     vertex  4.615191e+02 -3.236405e+01  1.199346e+03
     vertex  4.604712e+02 -3.156109e+01  1.197937e+03
     vertex  4.621858e+02 -3.294248e+01  1.198610e+03
   endloop
 endfacet
 facet normal -7.041683e-01 -6.988703e-01  1.254084e-01
   outer loop
     vertex  4.615191e+02 -3.236405e+01  1.199346e+03
     vertex  4.619502e+02 -3.240938e+01  1.201514e+03
     vertex  4.604712e+02 -3.156109e+01  1.197937e+03
   endloop
 endfacet
 facet normal -6.620154e-01 -7.309764e-01  1.655570e-01
   outer loop
     vertex  4.683094e+02 -3.785869e+01  1.200748e+03
     vertex  4.689616e+02 -3.888095e+01  1.198843e+03
     vertex  4.710037e+02 -3.995356e+01  1.202273e+03
   endloop
 endfacet
 facet normal -6.714622e-01 -7.238852e-01  1.585203e-01
   outer loop
     vertex  4.683094e+02 -3.785869e+01  1.200748e+03
     vertex  4.672674e+02 -3.725469e+01  1.199093e+03
     vertex  4.689616e+02 -3.888095e+01  1.198843e+03
   endloop
 endfacet
 facet normal -6.613703e-01 -7.384562e-01  1.314221e-01
   outer loop
     vertex  4.658680e+02 -3.572872e+01  1.200611e+03
     vertex  4.659188e+02 -3.605321e+01  1.199043e+03
     vertex  4.664982e+02 -3.641457e+01  1.199929e+03
   endloop
 endfacet
 facet normal -6.367530e-01 -7.588984e-01  1.364509e-01
   outer loop
     vertex  4.658680e+02 -3.572872e+01  1.200611e+03
     vertex  4.652806e+02 -3.539226e+01  1.199741e+03
     vertex  4.659188e+02 -3.605321e+01  1.199043e+03
   endloop
 endfacet
 facet normal -6.139958e-01 -7.867546e-01  6.345333e-02
   outer loop
     vertex  4.633184e+02 -3.369952e+01  1.200183e+03
     vertex  4.621858e+02 -3.294248e+01  1.198610e+03
     vertex  4.628520e+02 -3.352187e+01  1.197872e+03
   endloop
 endfacet
 facet normal -6.508748e-01 -7.556391e-01  7.329093e-02
   outer loop
     vertex  4.633184e+02 -3.369952e+01  1.200183e+03
     vertex  4.628520e+02 -3.352187e+01  1.197872e+03
     vertex  4.639681e+02 -3.432807e+01  1.199472e+03
   endloop
 endfacet
 facet normal -6.259534e-01 -7.717156e-01  1.124163e-01
   outer loop
     vertex  4.646412e+02 -3.473346e+01  1.200437e+03
     vertex  4.639681e+02 -3.432807e+01  1.199472e+03
     vertex  4.646169e+02 -3.495815e+01  1.198759e+03
   endloop
 endfacet
 facet normal -6.252137e-01 -7.724335e-01  1.115989e-01
   outer loop
     vertex  4.646412e+02 -3.473346e+01  1.200437e+03
     vertex  4.633184e+02 -3.369952e+01  1.200183e+03
     vertex  4.639681e+02 -3.432807e+01  1.199472e+03
   endloop
 endfacet
 facet normal -6.357393e-01 -7.599425e-01  1.353622e-01
   outer loop
     vertex  4.646412e+02 -3.473346e+01  1.200437e+03
     vertex  4.652806e+02 -3.539226e+01  1.199741e+03
     vertex  4.658680e+02 -3.572872e+01  1.200611e+03
   endloop
 endfacet
 facet normal -6.527841e-01 -7.495393e-01  1.098349e-01
   outer loop
     vertex  4.646412e+02 -3.473346e+01  1.200437e+03
     vertex  4.646169e+02 -3.495815e+01  1.198759e+03
     vertex  4.652806e+02 -3.539226e+01  1.199741e+03
   endloop
 endfacet
 facet normal -6.407079e-01 -7.500183e-01  1.642130e-01
   outer loop
     vertex  4.675565e+02 -3.696436e+01  1.201547e+03
     vertex  4.664982e+02 -3.641457e+01  1.199929e+03
     vertex  4.672674e+02 -3.725469e+01  1.199093e+03
   endloop
 endfacet
 facet normal -6.772357e-01 -7.171127e-01  1.646243e-01
   outer loop
     vertex  4.675565e+02 -3.696436e+01  1.201547e+03
     vertex  4.672674e+02 -3.725469e+01  1.199093e+03
     vertex  4.683094e+02 -3.785869e+01  1.200748e+03
   endloop
 endfacet
 facet normal -6.353424e-01 -7.537677e-01  1.678519e-01
   outer loop
     vertex  4.652365e+02 -3.504507e+01  1.201291e+03
     vertex  4.646412e+02 -3.473346e+01  1.200437e+03
     vertex  4.658680e+02 -3.572872e+01  1.200611e+03
   endloop
 endfacet
 facet normal -6.001596e-01 -7.957014e-01  8.165584e-02
   outer loop
     vertex  4.626682e+02 -3.307205e+01  1.200892e+03
     vertex  4.615191e+02 -3.236405e+01  1.199346e+03
     vertex  4.621858e+02 -3.294248e+01  1.198610e+03
   endloop
 endfacet
 facet normal -6.224098e-01 -7.752665e-01  1.075537e-01
   outer loop
     vertex  4.626682e+02 -3.307205e+01  1.200892e+03
     vertex  4.619502e+02 -3.240938e+01  1.201514e+03
     vertex  4.615191e+02 -3.236405e+01  1.199346e+03
   endloop
 endfacet
 facet normal -6.380112e-01 -7.645808e-01  9.142162e-02
   outer loop
     vertex  4.626682e+02 -3.307205e+01  1.200892e+03
     vertex  4.621858e+02 -3.294248e+01  1.198610e+03
     vertex  4.633184e+02 -3.369952e+01  1.200183e+03
   endloop
 endfacet
 facet normal -6.113953e-01 -7.805815e-01  1.299553e-01
   outer loop
     vertex  4.640009e+02 -3.407625e+01  1.201131e+03
     vertex  4.626682e+02 -3.307205e+01  1.200892e+03
     vertex  4.633184e+02 -3.369952e+01  1.200183e+03
   endloop
 endfacet
 facet normal -6.265276e-01 -7.654367e-01  1.468665e-01
   outer loop
     vertex  4.640009e+02 -3.407625e+01  1.201131e+03
     vertex  4.633184e+02 -3.369952e+01  1.200183e+03
     vertex  4.646412e+02 -3.473346e+01  1.200437e+03
   endloop
 endfacet
 facet normal -6.219696e-01 -7.678724e-01  1.533815e-01
   outer loop
     vertex  4.640009e+02 -3.407625e+01  1.201131e+03
     vertex  4.646412e+02 -3.473346e+01  1.200437e+03
     vertex  4.652365e+02 -3.504507e+01  1.201291e+03
   endloop
 endfacet
 facet normal -6.500710e-01 -7.313626e-01  2.061952e-01
   outer loop
     vertex  4.694857e+02 -3.837699e+01  1.202619e+03
     vertex  4.675565e+02 -3.696436e+01  1.201547e+03
     vertex  4.683094e+02 -3.785869e+01  1.200748e+03
   endloop
 endfacet
 facet normal -6.752092e-01 -7.006838e-01  2.305098e-01
   outer loop
     vertex  4.694857e+02 -3.837699e+01  1.202619e+03
     vertex  4.683094e+02 -3.785869e+01  1.200748e+03
     vertex  4.710037e+02 -3.995356e+01  1.202273e+03
   endloop
 endfacet
 facet normal -6.621031e-01 -7.258574e-01  1.864152e-01
   outer loop
     vertex  4.669396e+02 -3.623430e+01  1.202199e+03
     vertex  4.664982e+02 -3.641457e+01  1.199929e+03
     vertex  4.675565e+02 -3.696436e+01  1.201547e+03
   endloop
 endfacet
 facet normal -6.270836e-01 -7.573659e-01  1.821073e-01
   outer loop
     vertex  4.669396e+02 -3.623430e+01  1.202199e+03
     vertex  4.658680e+02 -3.572872e+01  1.200611e+03
     vertex  4.664982e+02 -3.641457e+01  1.199929e+03
   endloop
 endfacet
 facet normal -6.210674e-01 -7.612517e-01  1.864702e-01
   outer loop
     vertex  4.646041e+02 -3.436305e+01  1.201969e+03
     vertex  4.640009e+02 -3.407625e+01  1.201131e+03
     vertex  4.652365e+02 -3.504507e+01  1.201291e+03
   endloop
 endfacet
 facet normal -6.121930e-01 -7.731259e-01  1.658193e-01
   outer loop
     vertex  4.633600e+02 -3.342020e+01  1.201823e+03
     vertex  4.626682e+02 -3.307205e+01  1.200892e+03
     vertex  4.640009e+02 -3.407625e+01  1.201131e+03
   endloop
 endfacet
 facet normal -5.975832e-01 -7.877472e-01  1.494946e-01
   outer loop
     vertex  4.633600e+02 -3.342020e+01  1.201823e+03
     vertex  4.619502e+02 -3.240938e+01  1.201514e+03
     vertex  4.626682e+02 -3.307205e+01  1.200892e+03
   endloop
 endfacet
 facet normal -6.337931e-01 -7.391140e-01  2.280721e-01
   outer loop
     vertex  4.687487e+02 -3.742376e+01  1.203371e+03
     vertex  4.669396e+02 -3.623430e+01  1.202199e+03
     vertex  4.675565e+02 -3.696436e+01  1.201547e+03
   endloop
 endfacet
 facet normal -6.589757e-01 -7.086194e-01  2.522094e-01
   outer loop
     vertex  4.687487e+02 -3.742376e+01  1.203371e+03
     vertex  4.675565e+02 -3.696436e+01  1.201547e+03
     vertex  4.694857e+02 -3.837699e+01  1.202619e+03
   endloop
 endfacet
 facet normal -6.624398e-01 -6.976690e-01  2.728213e-01
   outer loop
     vertex  4.704420e+02 -3.869005e+01  1.204140e+03
     vertex  4.694857e+02 -3.837699e+01  1.202619e+03
     vertex  4.710037e+02 -3.995356e+01  1.202273e+03
   endloop
 endfacet
 facet normal -6.124609e-01 -7.647426e-01  2.001510e-01
   outer loop
     vertex  4.663215e+02 -3.550650e+01  1.202848e+03
     vertex  4.652365e+02 -3.504507e+01  1.201291e+03
     vertex  4.658680e+02 -3.572872e+01  1.200611e+03
   endloop
 endfacet
 facet normal -6.486130e-01 -7.331741e-01  2.043450e-01
   outer loop
     vertex  4.663215e+02 -3.550650e+01  1.202848e+03
     vertex  4.658680e+02 -3.572872e+01  1.200611e+03
     vertex  4.669396e+02 -3.623430e+01  1.202199e+03
   endloop
 endfacet
 facet normal -6.257112e-01 -7.138274e-01  3.145409e-01
   outer loop
     vertex  4.639710e+02 -3.368226e+01  1.202646e+03
     vertex  4.657231e+02 -3.354993e+01  1.206431e+03
     vertex  4.619502e+02 -3.240938e+01  1.201514e+03
   endloop
 endfacet
 facet normal -5.994589e-01 -7.754510e-01  1.983048e-01
   outer loop
     vertex  4.639710e+02 -3.368226e+01  1.202646e+03
     vertex  4.619502e+02 -3.240938e+01  1.201514e+03
     vertex  4.633600e+02 -3.342020e+01  1.201823e+03
   endloop
 endfacet
 facet normal -6.205348e-01 -7.618278e-01  1.858897e-01
   outer loop
     vertex  4.639710e+02 -3.368226e+01  1.202646e+03
     vertex  4.640009e+02 -3.407625e+01  1.201131e+03
     vertex  4.646041e+02 -3.436305e+01  1.201969e+03
   endloop
 endfacet
 facet normal -5.932470e-01 -7.818769e-01  1.916417e-01
   outer loop
     vertex  4.639710e+02 -3.368226e+01  1.202646e+03
     vertex  4.633600e+02 -3.342020e+01  1.201823e+03
     vertex  4.640009e+02 -3.407625e+01  1.201131e+03
   endloop
 endfacet
 facet normal -6.452130e-01 -7.144257e-01  2.707325e-01
   outer loop
     vertex  4.681450e+02 -3.664567e+01  1.203986e+03
     vertex  4.669396e+02 -3.623430e+01  1.202199e+03
     vertex  4.687487e+02 -3.742376e+01  1.203371e+03
   endloop
 endfacet
 facet normal -5.973837e-01 -7.715079e-01  2.188794e-01
   outer loop
     vertex  4.657026e+02 -3.478040e+01  1.203496e+03
     vertex  4.646041e+02 -3.436305e+01  1.201969e+03
     vertex  4.652365e+02 -3.504507e+01  1.201291e+03
   endloop
 endfacet
 facet normal -6.346546e-01 -7.399317e-01  2.229675e-01
   outer loop
     vertex  4.657026e+02 -3.478040e+01  1.203496e+03
     vertex  4.652365e+02 -3.504507e+01  1.201291e+03
     vertex  4.663215e+02 -3.550650e+01  1.202848e+03
   endloop
 endfacet
 facet normal -6.644381e-01 -6.910177e-01  2.846341e-01
   outer loop
     vertex  4.712584e+02 -3.889408e+01  1.205439e+03
     vertex  4.710037e+02 -3.995356e+01  1.202273e+03
     vertex  4.731163e+02 -4.052329e+01  1.205821e+03
   endloop
 endfacet
 facet normal -6.392198e-01 -7.123527e-01  2.897442e-01
   outer loop
     vertex  4.712584e+02 -3.889408e+01  1.205439e+03
     vertex  4.704420e+02 -3.869005e+01  1.204140e+03
     vertex  4.710037e+02 -3.995356e+01  1.202273e+03
   endloop
 endfacet
 facet normal -6.374662e-01 -7.165160e-01  2.832697e-01
   outer loop
     vertex  4.697155e+02 -3.769850e+01  1.204852e+03
     vertex  4.687487e+02 -3.742376e+01  1.203371e+03
     vertex  4.694857e+02 -3.837699e+01  1.202619e+03
   endloop
 endfacet
 facet normal -6.685338e-01 -6.896448e-01  2.783031e-01
   outer loop
     vertex  4.697155e+02 -3.769850e+01  1.204852e+03
     vertex  4.694857e+02 -3.837699e+01  1.202619e+03
     vertex  4.704420e+02 -3.869005e+01  1.204140e+03
   endloop
 endfacet
 facet normal -6.050236e-01 -7.506602e-01  2.654348e-01
   outer loop
     vertex  4.675403e+02 -3.586986e+01  1.204598e+03
     vertex  4.663215e+02 -3.550650e+01  1.202848e+03
     vertex  4.669396e+02 -3.623430e+01  1.202199e+03
   endloop
 endfacet
 facet normal -6.043488e-01 -7.514255e-01  2.648061e-01
   outer loop
     vertex  4.675403e+02 -3.586986e+01  1.204598e+03
     vertex  4.657026e+02 -3.478040e+01  1.203496e+03
     vertex  4.663215e+02 -3.550650e+01  1.202848e+03
   endloop
 endfacet
 facet normal -6.443968e-01 -7.154601e-01  2.699438e-01
   outer loop
     vertex  4.675403e+02 -3.586986e+01  1.204598e+03
     vertex  4.669396e+02 -3.623430e+01  1.202199e+03
     vertex  4.681450e+02 -3.664567e+01  1.203986e+03
   endloop
 endfacet
 facet normal -5.817593e-01 -7.777185e-01  2.381389e-01
   outer loop
     vertex  4.650830e+02 -3.405567e+01  1.204142e+03
     vertex  4.639710e+02 -3.368226e+01  1.202646e+03
     vertex  4.646041e+02 -3.436305e+01  1.201969e+03
   endloop
 endfacet
 facet normal -6.201005e-01 -7.462222e-01  2.421319e-01
   outer loop
     vertex  4.650830e+02 -3.405567e+01  1.204142e+03
     vertex  4.646041e+02 -3.436305e+01  1.201969e+03
     vertex  4.657026e+02 -3.478040e+01  1.203496e+03
   endloop
 endfacet
 facet normal -6.716802e-01 -6.612892e-01  3.339794e-01
   outer loop
     vertex  4.650830e+02 -3.405567e+01  1.204142e+03
     vertex  4.657231e+02 -3.354993e+01  1.206431e+03
     vertex  4.639710e+02 -3.368226e+01  1.202646e+03
   endloop
 endfacet
 facet normal -6.542494e-01 -6.949980e-01  2.982206e-01
   outer loop
     vertex  4.691206e+02 -3.688891e+01  1.205433e+03
     vertex  4.687487e+02 -3.742376e+01  1.203371e+03
     vertex  4.697155e+02 -3.769850e+01  1.204852e+03
   endloop
 endfacet
 facet normal -6.245314e-01 -7.212226e-01  2.996641e-01
   outer loop
     vertex  4.691206e+02 -3.688891e+01  1.205433e+03
     vertex  4.681450e+02 -3.664567e+01  1.203986e+03
     vertex  4.687487e+02 -3.742376e+01  1.203371e+03
   endloop
 endfacet
 facet normal -6.237092e-01 -7.222338e-01  2.989401e-01
   outer loop
     vertex  4.691206e+02 -3.688891e+01  1.205433e+03
     vertex  4.675403e+02 -3.586986e+01  1.204598e+03
     vertex  4.681450e+02 -3.664567e+01  1.203986e+03
   endloop
 endfacet
 facet normal -6.642348e-01 -6.799663e-01  3.105446e-01
   outer loop
     vertex  4.705392e+02 -3.788329e+01  1.206114e+03
     vertex  4.704420e+02 -3.869005e+01  1.204140e+03
     vertex  4.712584e+02 -3.889408e+01  1.205439e+03
   endloop
 endfacet
 facet normal -6.421855e-01 -6.980086e-01  3.168309e-01
   outer loop
     vertex  4.705392e+02 -3.788329e+01  1.206114e+03
     vertex  4.697155e+02 -3.769850e+01  1.204852e+03
     vertex  4.704420e+02 -3.869005e+01  1.204140e+03
   endloop
 endfacet
 facet normal -6.615643e-01 -6.807334e-01  3.145389e-01
   outer loop
     vertex  4.705392e+02 -3.788329e+01  1.206114e+03
     vertex  4.712584e+02 -3.889408e+01  1.205439e+03
     vertex  4.731163e+02 -4.052329e+01  1.205821e+03
   endloop
 endfacet
 facet normal -6.152921e-01 -7.252524e-01  3.089087e-01
   outer loop
     vertex  4.669348e+02 -3.509578e+01  1.205210e+03
     vertex  4.657026e+02 -3.478040e+01  1.203496e+03
     vertex  4.675403e+02 -3.586986e+01  1.204598e+03
   endloop
 endfacet
 facet normal -6.289180e-01 -7.027517e-01  3.325691e-01
   outer loop
     vertex  4.685250e+02 -3.608122e+01  1.206014e+03
     vertex  4.675403e+02 -3.586986e+01  1.204598e+03
     vertex  4.691206e+02 -3.688891e+01  1.205433e+03
   endloop
 endfacet
 facet normal -6.436298e-01 -6.755671e-01  3.596522e-01
   outer loop
     vertex  4.699505e+02 -3.705735e+01  1.206666e+03
     vertex  4.731163e+02 -4.052329e+01  1.205821e+03
     vertex  4.684498e+02 -3.386082e+01  1.209985e+03
   endloop
 endfacet
 facet normal -6.619884e-01 -6.809870e-01  3.130942e-01
   outer loop
     vertex  4.699505e+02 -3.705735e+01  1.206666e+03
     vertex  4.705392e+02 -3.788329e+01  1.206114e+03
     vertex  4.731163e+02 -4.052329e+01  1.205821e+03
   endloop
 endfacet
 facet normal -6.320336e-01 -7.012981e-01  3.297190e-01
   outer loop
     vertex  4.699505e+02 -3.705735e+01  1.206666e+03
     vertex  4.691206e+02 -3.688891e+01  1.205433e+03
     vertex  4.697155e+02 -3.769850e+01  1.204852e+03
   endloop
 endfacet
 facet normal -6.531551e-01 -6.833955e-01  3.261271e-01
   outer loop
     vertex  4.699505e+02 -3.705735e+01  1.206666e+03
     vertex  4.697155e+02 -3.769850e+01  1.204852e+03
     vertex  4.705392e+02 -3.788329e+01  1.206114e+03
   endloop
 endfacet
 facet normal -5.729235e-01 -7.611294e-01  3.040407e-01
   outer loop
     vertex  4.663288e+02 -3.432326e+01  1.205820e+03
     vertex  4.650830e+02 -3.405567e+01  1.204142e+03
     vertex  4.657026e+02 -3.478040e+01  1.203496e+03
   endloop
 endfacet
 facet normal -5.996387e-01 -7.295534e-01  3.289152e-01
   outer loop
     vertex  4.663288e+02 -3.432326e+01  1.205820e+03
     vertex  4.657231e+02 -3.354993e+01  1.206431e+03
     vertex  4.650830e+02 -3.405567e+01  1.204142e+03
   endloop
 endfacet
 facet normal -6.147414e-01 -7.259416e-01  3.083859e-01
   outer loop
     vertex  4.663288e+02 -3.432326e+01  1.205820e+03
     vertex  4.657026e+02 -3.478040e+01  1.203496e+03
     vertex  4.669348e+02 -3.509578e+01  1.205210e+03
   endloop
 endfacet
 facet normal -5.963063e-01 -7.300652e-01  3.338018e-01
   outer loop
     vertex  4.679289e+02 -3.527508e+01  1.206593e+03
     vertex  4.669348e+02 -3.509578e+01  1.205210e+03
     vertex  4.675403e+02 -3.586986e+01  1.204598e+03
   endloop
 endfacet
 facet normal -6.284058e-01 -7.034257e-01  3.321121e-01
   outer loop
     vertex  4.679289e+02 -3.527508e+01  1.206593e+03
     vertex  4.675403e+02 -3.586986e+01  1.204598e+03
     vertex  4.685250e+02 -3.608122e+01  1.206014e+03
   endloop
 endfacet
 facet normal -6.005080e-01 -6.941025e-01  3.970037e-01
   outer loop
     vertex  4.693614e+02 -3.623252e+01  1.207217e+03
     vertex  4.699505e+02 -3.705735e+01  1.206666e+03
     vertex  4.684498e+02 -3.386082e+01  1.209985e+03
   endloop
 endfacet
 facet normal -6.211044e-01 -7.046041e-01  3.431652e-01
   outer loop
     vertex  4.693614e+02 -3.623252e+01  1.207217e+03
     vertex  4.685250e+02 -3.608122e+01  1.206014e+03
     vertex  4.691206e+02 -3.688891e+01  1.205433e+03
   endloop
 endfacet
 facet normal -6.433570e-01 -6.862192e-01  3.394040e-01
   outer loop
     vertex  4.693614e+02 -3.623252e+01  1.207217e+03
     vertex  4.691206e+02 -3.688891e+01  1.205433e+03
     vertex  4.699505e+02 -3.705735e+01  1.206666e+03
   endloop
 endfacet
 facet normal -5.855989e-01 -7.122352e-01  3.870334e-01
   outer loop
     vertex  4.673323e+02 -3.447042e+01  1.207172e+03
     vertex  4.684498e+02 -3.386082e+01  1.209985e+03
     vertex  4.657231e+02 -3.354993e+01  1.206431e+03
   endloop
 endfacet
 facet normal -5.815521e-01 -7.334940e-01  3.518291e-01
   outer loop
     vertex  4.673323e+02 -3.447042e+01  1.207172e+03
     vertex  4.657231e+02 -3.354993e+01  1.206431e+03
     vertex  4.663288e+02 -3.432326e+01  1.205820e+03
   endloop
 endfacet
 facet normal -5.812787e-01 -7.338253e-01  3.515900e-01
   outer loop
     vertex  4.673323e+02 -3.447042e+01  1.207172e+03
     vertex  4.663288e+02 -3.432326e+01  1.205820e+03
     vertex  4.669348e+02 -3.509578e+01  1.205210e+03
   endloop
 endfacet
 facet normal -6.144587e-01 -7.071580e-01  3.498114e-01
   outer loop
     vertex  4.673323e+02 -3.447042e+01  1.207172e+03
     vertex  4.669348e+02 -3.509578e+01  1.205210e+03
     vertex  4.679289e+02 -3.527508e+01  1.206593e+03
   endloop
 endfacet
 facet normal -6.329095e-01 -6.888913e-01  3.533474e-01
   outer loop
     vertex  4.687721e+02 -3.540866e+01  1.207768e+03
     vertex  4.685250e+02 -3.608122e+01  1.206014e+03
     vertex  4.693614e+02 -3.623252e+01  1.207217e+03
   endloop
 endfacet
 facet normal -6.096349e-01 -7.076149e-01  3.572484e-01
   outer loop
     vertex  4.687721e+02 -3.540866e+01  1.207768e+03
     vertex  4.679289e+02 -3.527508e+01  1.206593e+03
     vertex  4.685250e+02 -3.608122e+01  1.206014e+03
   endloop
 endfacet
 facet normal -5.993644e-01 -6.946207e-01  3.978245e-01
   outer loop
     vertex  4.687721e+02 -3.540866e+01  1.207768e+03
     vertex  4.693614e+02 -3.623252e+01  1.207217e+03
     vertex  4.684498e+02 -3.386082e+01  1.209985e+03
   endloop
 endfacet
 facet normal -6.091408e-01 -7.082559e-01  3.568207e-01
   outer loop
     vertex  4.687721e+02 -3.540866e+01  1.207768e+03
     vertex  4.673323e+02 -3.447042e+01  1.207172e+03
     vertex  4.679289e+02 -3.527508e+01  1.206593e+03
   endloop
 endfacet
 facet normal -6.226163e-01 -6.761480e-01  3.939198e-01
   outer loop
     vertex  4.681825e+02 -3.458579e+01  1.208318e+03
     vertex  4.684498e+02 -3.386082e+01  1.209985e+03
     vertex  4.673323e+02 -3.447042e+01  1.207172e+03
   endloop
 endfacet
 facet normal -5.984790e-01 -6.951132e-01  3.982970e-01
   outer loop
     vertex  4.681825e+02 -3.458579e+01  1.208318e+03
     vertex  4.687721e+02 -3.540866e+01  1.207768e+03
     vertex  4.684498e+02 -3.386082e+01  1.209985e+03
   endloop
 endfacet
 facet normal -6.103078e-01 -6.933955e-01  3.830497e-01
   outer loop
     vertex  4.681825e+02 -3.458579e+01  1.208318e+03
     vertex  4.673323e+02 -3.447042e+01  1.207172e+03
     vertex  4.687721e+02 -3.540866e+01  1.207768e+03
   endloop
 endfacet
endsolid
