solid 
 facet normal  9.940563e-01 -0.000000e+00  1.088669e-01
   outer loop
     vertex  4.350000e+03 -4.750000e+01  1.307115e+03
     vertex  4.350000e+03 -4.050000e+01  1.307115e+03
     vertex  4.349881e+03 -4.050000e+01  1.308197e+03
   endloop
 endfacet
 facet normal  9.940563e-01 -0.000000e+00  1.088669e-01
   outer loop
     vertex  4.349881e+03 -4.750000e+01  1.308197e+03
     vertex  4.350000e+03 -4.750000e+01  1.307115e+03
     vertex  4.349881e+03 -4.050000e+01  1.308197e+03
   endloop
 endfacet
 facet normal  9.469301e-01 -0.000000e+00  3.214395e-01
   outer loop
     vertex  4.349532e+03 -4.750000e+01  1.309228e+03
     vertex  4.349881e+03 -4.050000e+01  1.308197e+03
     vertex  4.349532e+03 -4.050000e+01  1.309228e+03
   endloop
 endfacet
 facet normal  9.469301e-01  0.000000e+00  3.214395e-01
   outer loop
     vertex  4.349532e+03 -4.750000e+01  1.309228e+03
     vertex  4.349881e+03 -4.750000e+01  1.308197e+03
     vertex  4.349881e+03 -4.050000e+01  1.308197e+03
   endloop
 endfacet
 facet normal  7.223640e-01 -0.000000e+00  6.915131e-01
   outer loop
     vertex  4.348967e+03 -4.750000e+01  1.310159e+03
     vertex  4.348967e+03 -4.050000e+01  1.310159e+03
     vertex  4.348214e+03 -4.050000e+01  1.310945e+03
   endloop
 endfacet
 facet normal  8.549119e-01 -0.000000e+00  5.187733e-01
   outer loop
     vertex  4.348967e+03 -4.750000e+01  1.310159e+03
     vertex  4.349532e+03 -4.050000e+01  1.309228e+03
     vertex  4.348967e+03 -4.050000e+01  1.310159e+03
   endloop
 endfacet
 facet normal  8.549119e-01  0.000000e+00  5.187733e-01
   outer loop
     vertex  4.348967e+03 -4.750000e+01  1.310159e+03
     vertex  4.349532e+03 -4.750000e+01  1.309228e+03
     vertex  4.349532e+03 -4.050000e+01  1.309228e+03
   endloop
 endfacet
 facet normal  7.223640e-01 -0.000000e+00  6.915131e-01
   outer loop
     vertex  4.348214e+03 -4.750000e+01  1.310945e+03
     vertex  4.348967e+03 -4.750000e+01  1.310159e+03
     vertex  4.348214e+03 -4.050000e+01  1.310945e+03
   endloop
 endfacet
 facet normal  5.555702e-01 -0.000000e+00  8.314696e-01
   outer loop
     vertex  4.347309e+03 -4.750000e+01  1.311550e+03
     vertex  4.348214e+03 -4.050000e+01  1.310945e+03
     vertex  4.347309e+03 -4.050000e+01  1.311550e+03
   endloop
 endfacet
 facet normal  5.555702e-01  0.000000e+00  8.314696e-01
   outer loop
     vertex  4.347309e+03 -4.750000e+01  1.311550e+03
     vertex  4.348214e+03 -4.750000e+01  1.310945e+03
     vertex  4.348214e+03 -4.050000e+01  1.310945e+03
   endloop
 endfacet
 facet normal  3.624380e-01 -0.000000e+00  9.320079e-01
   outer loop
     vertex  4.346294e+03 -4.750000e+01  1.311945e+03
     vertex  4.347309e+03 -4.050000e+01  1.311550e+03
     vertex  4.346294e+03 -4.050000e+01  1.311945e+03
   endloop
 endfacet
 facet normal  3.624380e-01  0.000000e+00  9.320079e-01
   outer loop
     vertex  4.346294e+03 -4.750000e+01  1.311945e+03
     vertex  4.347309e+03 -4.750000e+01  1.311550e+03
     vertex  4.347309e+03 -4.050000e+01  1.311550e+03
   endloop
 endfacet
endsolid
