solid 
 facet normal -8.065506e-15  9.961947e-01  8.715574e-02
   outer loop
     vertex  4.350000e+03 -3.354993e+01  1.206431e+03
     vertex  4.684498e+02 -3.386082e+01  1.209985e+03
     vertex  5.260786e+02 -4.043150e+01  1.285088e+03
   endloop
 endfacet
 facet normal -7.444928e-15  9.961947e-01  8.715574e-02
   outer loop
     vertex  4.350000e+03 -3.354993e+01  1.206431e+03
     vertex  4.657231e+02 -3.354993e+01  1.206431e+03
     vertex  4.684498e+02 -3.386082e+01  1.209985e+03
   endloop
 endfacet
 facet normal -8.224399e-15  9.961947e-01  8.715574e-02
   outer loop
     vertex  4.350000e+03 -4.043150e+01  1.285088e+03
     vertex  4.350000e+03 -3.354993e+01  1.206431e+03
     vertex  5.260786e+02 -4.043150e+01  1.285088e+03
   endloop
 endfacet
endsolid
