solid 
 facet normal  9.940563e-01  0.000000e+00 -1.088669e-01
   outer loop
     vertex  4.320356e+03  2.275000e+02  1.418747e+03
     vertex  4.320000e+03  2.205000e+02  1.415500e+03
     vertex  4.320000e+03  2.275000e+02  1.415500e+03
   endloop
 endfacet
 facet normal  9.940563e-01  0.000000e+00 -1.088669e-01
   outer loop
     vertex  4.320356e+03  2.275000e+02  1.418747e+03
     vertex  4.320356e+03  2.205000e+02  1.418747e+03
     vertex  4.320000e+03  2.205000e+02  1.415500e+03
   endloop
 endfacet
 facet normal  9.469301e-01  0.000000e+00 -3.214395e-01
   outer loop
     vertex  4.321405e+03  2.275000e+02  1.421839e+03
     vertex  4.321405e+03  2.205000e+02  1.421839e+03
     vertex  4.320356e+03  2.205000e+02  1.418747e+03
   endloop
 endfacet
 facet normal  9.469301e-01  0.000000e+00 -3.214395e-01
   outer loop
     vertex  4.321405e+03  2.275000e+02  1.421839e+03
     vertex  4.320356e+03  2.205000e+02  1.418747e+03
     vertex  4.320356e+03  2.275000e+02  1.418747e+03
   endloop
 endfacet
 facet normal  8.549119e-01  0.000000e+00 -5.187733e-01
   outer loop
     vertex  4.323100e+03  2.275000e+02  1.424631e+03
     vertex  4.323100e+03  2.205000e+02  1.424631e+03
     vertex  4.321405e+03  2.205000e+02  1.421839e+03
   endloop
 endfacet
 facet normal  7.223640e-01  0.000000e+00 -6.915131e-01
   outer loop
     vertex  4.323100e+03  2.275000e+02  1.424631e+03
     vertex  4.325358e+03  2.205000e+02  1.426991e+03
     vertex  4.323100e+03  2.205000e+02  1.424631e+03
   endloop
 endfacet
 facet normal  8.549119e-01  0.000000e+00 -5.187733e-01
   outer loop
     vertex  4.323100e+03  2.275000e+02  1.424631e+03
     vertex  4.321405e+03  2.205000e+02  1.421839e+03
     vertex  4.321405e+03  2.275000e+02  1.421839e+03
   endloop
 endfacet
 facet normal  7.223640e-01  0.000000e+00 -6.915131e-01
   outer loop
     vertex  4.325358e+03  2.275000e+02  1.426991e+03
     vertex  4.325358e+03  2.205000e+02  1.426991e+03
     vertex  4.323100e+03  2.275000e+02  1.424631e+03
   endloop
 endfacet
 facet normal  5.555702e-01  0.000000e+00 -8.314696e-01
   outer loop
     vertex  4.328074e+03  2.275000e+02  1.428805e+03
     vertex  4.328074e+03  2.205000e+02  1.428805e+03
     vertex  4.325358e+03  2.205000e+02  1.426991e+03
   endloop
 endfacet
 facet normal  5.555702e-01  0.000000e+00 -8.314696e-01
   outer loop
     vertex  4.328074e+03  2.275000e+02  1.428805e+03
     vertex  4.325358e+03  2.205000e+02  1.426991e+03
     vertex  4.325358e+03  2.275000e+02  1.426991e+03
   endloop
 endfacet
 facet normal  3.624380e-01  0.000000e+00 -9.320079e-01
   outer loop
     vertex  4.331118e+03  2.275000e+02  1.429989e+03
     vertex  4.331118e+03  2.205000e+02  1.429989e+03
     vertex  4.328074e+03  2.205000e+02  1.428805e+03
   endloop
 endfacet
 facet normal  3.624380e-01  0.000000e+00 -9.320079e-01
   outer loop
     vertex  4.331118e+03  2.275000e+02  1.429989e+03
     vertex  4.328074e+03  2.205000e+02  1.428805e+03
     vertex  4.328074e+03  2.275000e+02  1.428805e+03
   endloop
 endfacet
endsolid
